<?xml version="1.0" standalone="no"?>
<!DOCTYPE svg PUBLIC "-//W3C//DTD SVG 1.1//EN" "http://www.w3.org/Graphics/SVG/1.1/DTD/svg11.dtd" >
<svg xmlns="http://www.w3.org/2000/svg">
<metadata>Generated by IcoMoon</metadata>
<defs>
<font id="icostartup" horiz-adv-x="1024">
<font-face units-per-em="1024" ascent="960" descent="-64" />
<missing-glyph horiz-adv-x="1024" />
<glyph unicode="&#x20;" horiz-adv-x="512" d="" />
<glyph unicode="&#xe114;" glyph-name="icon-plus" d="M512 853.334q17.667 0 30.167-12.5t12.5-30.167v-341.333h341.333q17.667 0 30.167-12.5t12.5-30.167-12.5-30.167-30.167-12.5h-341.333v-341.333q0-17.667-12.5-30.167t-30.167-12.5-30.167 12.5-12.5 30.167v341.333h-341.333q-17.667 0-30.167 12.5t-12.5 30.167 12.5 30.167 30.167 12.5h341.333v341.333q0 17.667 12.5 30.167t30.167 12.5z" />
<glyph unicode="&#xe900;" glyph-name="icon-news" horiz-adv-x="1081" d="M1047.512 812.21h-116.057v111.416c0 18.438-14.595 33.391-32.59 33.391h-866.275c-17.989 0-32.59-14.954-32.59-33.391v-872.52c0-60.394 47.972-109.546 106.916-109.546h866.275c58.938 0 106.91 49.152 106.91 109.546v727.713c0 18.46-14.595 33.391-32.59 33.391v0zM65.179 890.234h801.096v-839.129c0-15.154 3.036-29.613 8.49-42.763h-767.849c-23.025 0-41.736 19.194-41.736 42.763v839.129zM973.191 8.342c-22.997 0-41.736 19.194-41.736 42.763v694.322h83.467v-694.322c0-23.569-18.712-42.763-41.731-42.763v0zM140.885 525.863v0c-17.995 0-32.59 14.959-32.59 33.391v223.176c0 18.432 14.595 33.391 32.59 33.391h649.712c17.989 0 32.59-14.959 32.59-33.391v-223.176c0-18.432-14.6-33.391-32.59-33.391h-649.712zM173.475 592.646h584.533v156.394h-584.533v-156.394zM140.885 86.951v0c-17.995 0-32.59 14.937-32.59 33.391v290.783c0 18.438 14.595 33.391 32.59 33.391h283.78c17.989 0 32.59-14.954 32.59-33.391v-290.783c0-18.454-14.6-33.391-32.59-33.391h-283.78zM173.475 153.734h218.6v224h-218.6v-224zM790.597 444.516h-274.47c-17.989 0-32.59-14.954-32.59-33.391 0-18.432 14.6-33.391 32.59-33.391h274.47c17.989 0 32.59 14.959 32.59 33.391 0 18.438-14.6 33.391-32.59 33.391v0zM790.597 153.734h-274.47c-17.989 0-32.59-14.954-32.59-33.391 0-18.454 14.6-33.391 32.59-33.391h274.47c17.989 0 32.59 14.937 32.59 33.391 0 18.438-14.6 33.391-32.59 33.391v0zM790.597 299.147h-274.47c-17.989 0-32.59-14.954-32.59-33.391 0-18.454 14.6-33.391 32.59-33.391h274.47c17.989 0 32.59 14.937 32.59 33.391 0 18.438-14.6 33.391-32.59 33.391v0z" />
<glyph unicode="&#xe901;" glyph-name="icon-sm-following" horiz-adv-x="878" d="M175.49 405.335c46.169-37.547 102.607-60.212 164.063-60.212 61.842 0 118.28 22.665 164.372 60.212 41.305-3.282 76.898-26.786 96.508-60.212h68.173c-19.302 52.504-61.842 93.866-115.501 111.8 39.838 52.733 64.545 119.508 64.545 193.457 0 168.731-124.534 305.257-278.097 305.257-153.486 0-277.711-136.526-277.711-305.257 0-73.948 24.706-140.723 64.545-193.457-73.269-24.421-126.387-92.111-126.387-172.928v-121.874c0-101.422 82.92-183.383 185.141-183.383h308.825v61.128h-308.825c-68.096 0-123.299 54.565-123.299 122.255v121.874c0 64.104 50.030 116.303 113.648 121.34v0zM123.685 650.38c0 134.771 96.74 244.129 215.869 244.129 119.438 0 216.255-109.358 216.255-244.129s-96.817-244.129-216.255-244.129c-119.129 0-215.869 109.358-215.869 244.129v0zM833.906 162.122h-92.57v91.501c0 16.713-13.897 30.373-31.114 30.373-16.908 0-30.728-13.66-30.728-30.373v-91.501h-92.57c-17.217 0-31.114-13.737-31.114-30.755 0-16.713 13.897-30.373 31.114-30.373h92.57v-91.501c0-17.018 13.82-30.755 30.728-30.755 17.217 0 31.114 13.737 31.114 30.755v91.501h92.57c16.908 0 30.728 13.66 30.728 30.373 0 17.018-13.82 30.755-30.728 30.755v0z" />
<glyph unicode="&#xe902;" glyph-name="icon-right" horiz-adv-x="546" d="M526.497 512.528l-411.97 410.753c-26.207 26.13-68.687 26.13-94.882 0-26.194-26.118-26.194-68.474 0-94.604l364.523-363.444-364.51-363.444c-26.194-26.118-26.194-68.487 0-94.604 26.194-26.13 68.675-26.13 94.882 0l411.97 410.753c13.078 13.052 19.623 30.174 19.623 47.296s-6.558 34.243-19.636 47.296z" />
<glyph unicode="&#xe903;" glyph-name="icon-left" horiz-adv-x="546" d="M19.636 512.528l411.97 410.753c26.207 26.13 68.687 26.13 94.882 0 26.194-26.118 26.194-68.474 0-94.604l-364.523-363.444 364.51-363.444c26.194-26.118 26.194-68.487 0-94.604-26.194-26.13-68.675-26.13-94.882 0l-411.97 410.753c-13.078 13.052-19.623 30.174-19.623 47.296s6.558 34.243 19.636 47.296z" />
<glyph unicode="&#xe904;" glyph-name="icon-upload" horiz-adv-x="843" d="M723.77-64h-605.77c-65.556 0-118 53.884-118 121.245v431.113c0 21.551 18.362 40.418 39.337 40.418s39.337-18.867 39.337-40.418v-433.798c0-21.564 18.353-40.418 39.325-40.418h605.77c20.987 0 39.34 18.854 39.34 40.418v433.798c0 21.551 18.35 40.418 39.337 40.418 20.975 0 39.325-18.867 39.325-40.418v-433.798c0-64.676-52.444-118.56-118.003-118.56v0zM194.053 641.933c-10.494 0-20.975 2.694-28.844 10.782-15.74 16.173-15.74 40.418 0 56.578l228.143 234.424c15.74 16.16 39.34 16.16 55.078 0l228.146-234.424c15.728-16.16 15.728-40.405 0-56.578-15.74-16.173-39.337-16.173-55.078 0l-199.3 204.775-199.29-204.775c-7.869-8.088-18.362-10.782-28.856-10.782v0zM419.574 189.268c-20.975 0-39.337 18.867-39.337 40.418v687.076c0 21.551 18.362 40.421 39.337 40.421s39.337-18.87 39.337-40.421v-684.379c0-24.248-15.728-43.115-39.337-43.115v0z" />
<glyph unicode="&#xe905;" glyph-name="icon-search" d="M955.79 95.346l-254.919 254.862c45.568 63.545 72.932 141.141 72.932 222.891 0 214.016-173.113 386.901-386.901 386.901-214.016 0-386.901-172.885-386.901-386.901 0-213.788 172.885-386.901 386.901-386.901 81.749 0 159.346 27.364 222.891 72.932l254.862-254.919c22.926-22.642 63.772-22.642 91.136 0 27.307 27.364 27.307 63.772 0 91.136v0zM386.901 277.333c-163.783 0-295.765 131.982-295.765 295.765s131.982 295.765 295.765 295.765c163.783 0 295.765-131.982 295.765-295.765s-131.982-295.765-295.765-295.765v0z" />
<glyph unicode="&#xe906;" glyph-name="icon-x" d="M972.976 908.941c-40.316 40.316-105.753 40.316-146 0l-320.249-320.249-320.162 320.249c-40.385 40.316-105.701 40.316-146.069 0-40.316-40.385-40.316-105.701 0-146.086l320.231-320.162-320.231-320.249c-40.316-40.385-40.316-105.683 0-146.069 20.193-20.124 46.592-30.255 73.060-30.255 26.399 0 52.885 10.062 73.009 30.255l320.162 320.249 320.249-320.249c20.124-20.124 46.523-30.255 72.991-30.255 26.417 0 52.816 10.062 73.009 30.255 40.385 40.385 40.385 105.683 0 146.069l-320.162 320.18 320.162 320.231c40.316 40.385 40.316 105.701 0 146.086v0z" />
<glyph unicode="&#xe907;" glyph-name="icon-sm-love-fill" d="M511.346-36.822c-9.571 0-18.715 4.174-25.219 11.512l-406.566 458.207c-0.107 0.115-0.213 0.241-0.31 0.353-49.351 57.143-76.532 132.854-76.532 213.219s27.181 156.076 76.532 213.219l6.171 7.14c50.239 58.158 117.306 90.193 188.865 90.193s138.64-32.035 188.879-90.193l48.181-55.79 48.195 55.79c50.239 58.158 117.306 90.193 188.865 90.193s138.64-32.035 188.879-90.193l6.157-7.14c49.361-57.143 76.545-132.869 76.545-213.219 0-80.365-27.184-156.091-76.532-213.219-0.096-0.126-0.203-0.238-0.31-0.353l-406.566-458.207c-6.508-7.338-15.648-11.512-25.233-11.512z" />
<glyph unicode="&#xe908;" glyph-name="icon-reply" horiz-adv-x="1144" d="M1108.747 493.427c-68.893 170.784-254.826 256.156-557.915 256.156h-142.785v162.738c0 11.010-4.050 20.578-12.11 28.613-8.070 8.036-17.656 12.073-28.7 12.073s-20.63-4.037-28.7-12.073l-326.428-325.447c-8.060-8.075-12.11-17.603-12.11-28.613s4.050-20.568 12.11-28.604l326.428-325.447c8.109-8.046 17.656-12.083 28.7-12.083s20.63 4.037 28.7 12.083c8.060 8.036 12.11 17.593 12.11 28.604v162.709h142.785c41.651 0 78.988-1.258 111.923-3.813 32.935-2.516 65.646-7.080 98.16-13.634 32.515-6.593 60.794-15.584 84.828-27.053 23.995-11.43 46.424-26.127 67.25-44.149s37.826-39.429 51.012-64.19c13.176-24.8 23.496-54.135 30.91-88.035 7.454-33.909 11.161-72.275 11.161-115.049 0-23.318-1.076-49.376-3.179-78.214 0-2.516-0.528-7.5-1.604-14.931-1.027-7.392-1.565-13.029-1.565-16.842 0-6.32 1.8-11.654 5.39-15.887 3.629-4.223 8.637-6.32 15.015-6.32 6.759 0 12.726 3.579 17.842 10.776 2.944 3.813 5.693 8.504 8.295 13.985 2.524 5.52 5.39 11.888 8.598 19.085 3.169 7.197 5.429 12.268 6.681 15.243 53.996 120.754 80.974 216.298 80.974 286.661 0 84.309-11.278 154.897-33.777 211.656v0z" />
<glyph unicode="&#xe909;" glyph-name="icon-close" d="M509.769 955.553c-281.081 0-509.769-228.688-509.769-509.769 0-281.088 228.688-509.776 509.769-509.776 281.088 0 509.776 228.688 509.776 509.776 0 281.081-228.688 509.769-509.776 509.769v0zM509.769 23.384c-232.887 0-422.371 189.484-422.371 422.4 0 232.887 189.484 422.371 422.371 422.371 232.916 0 422.4-189.484 422.4-422.371 0-232.916-189.513-422.4-422.4-422.4v0zM707.028 643.013c-17.057 17.057-44.741 17.057-61.769 0l-135.49-135.49-135.453 135.49c-17.086 17.057-44.72 17.057-61.798 0-17.057-17.086-17.057-44.72 0-61.806l135.483-135.453-135.483-135.49c-17.057-17.086-17.057-44.712 0-61.798 8.543-8.514 19.712-12.8 30.91-12.8 11.169 0 22.374 4.257 30.888 12.8l135.453 135.49 135.49-135.49c8.514-8.514 19.683-12.8 30.881-12.8 11.176 0 22.345 4.257 30.888 12.8 17.086 17.086 17.086 44.712 0 61.798l-135.453 135.461 135.453 135.483c17.057 17.086 17.057 44.72 0 61.806v0z" />
<glyph unicode="&#xe90a;" glyph-name="icon-info" d="M512 960c-282.624 0-512-229.081-512-511.751 0-283.032 229.376-512.426 512-512.426 282.913 0 512 229.394 512 512.426 0 282.67-229.087 511.751-512 511.751v0zM548.527 163.241c-11.878-10.554-25.708-15.903-41.321-15.903-16.095 0-30.214 5.277-42.261 15.711-12.047 10.458-18.071 25.132-18.071 43.855 0 16.674 5.831 30.795 17.492 42.096 11.686 11.373 25.901 17.132 42.839 17.132 16.649 0 30.768-5.759 42.165-17.132 11.3-11.301 17.035-25.421 17.035-42.096 0-18.53-5.927-33.036-17.878-43.662v0zM696.85 530.898c-9.228-16.939-20.046-31.542-32.672-43.879-12.505-12.313-35.105-33.036-67.656-62.119-8.939-8.169-16.191-15.421-21.661-21.638-5.349-6.217-9.397-11.855-12.047-17.036-2.723-5.181-4.698-10.361-6.192-15.542-1.422-5.084-3.59-14.193-6.505-27.204-5.084-27.469-20.793-41.204-47.249-41.204-13.734 0-25.323 4.41-34.72 13.446-9.421 9.036-14.119 22.409-14.119 40.096 0 22.216 3.47 41.517 10.336 57.806 6.891 16.265 16.023 30.578 27.395 42.819 11.397 12.337 26.744 27.012 46.020 43.951 16.938 14.771 29.178 25.976 36.719 33.518 7.614 7.518 13.926 15.903 19.107 25.229 5.18 9.205 7.71 19.277 7.71 30.12 0 21.18-7.903 39.060-23.612 53.638-15.733 14.506-36.069 21.831-61.006 21.831-29.082 0-50.525-7.325-64.283-22.024-13.734-14.675-25.395-36.313-34.912-64.939-9.035-29.927-26.166-44.891-51.2-44.891-14.866 0-27.395 5.277-37.539 15.711-10.168 10.458-15.252 21.759-15.252 33.879 0 25.132 7.999 50.65 24.19 76.433 16.191 25.903 39.707 47.252 70.668 64.192s67.102 25.421 108.327 25.421c38.406 0 72.282-7.157 101.653-21.277s52.043-33.397 68.138-57.782c15.998-24.385 23.998-50.843 23.998-79.444 0-22.409-4.506-42.168-13.637-59.108v0z" />
<glyph unicode="&#xe90b;" glyph-name="icon-think" horiz-adv-x="989" d="M481.286 920.483c-197.953 0-359.007-157.447-359.007-350.973 0-136.747 80.426-255.462 197.453-313.362v-209.054c0-50.461 42.004-91.522 93.629-91.522h135.859c51.617 0 93.619 41.060 93.619 91.522v209.054c117.030 57.9 197.462 176.615 197.462 313.362 0 193.526-161.055 350.973-359.016 350.973v0zM509.209 279.336c-9.199-0.84-18.511-1.289-27.923-1.289-9.419 0-18.731 0.449-27.93 1.289 2.080 40.702 1.074 118.491-28.454 186.889h112.761c-29.519-68.397-30.528-146.187-28.454-186.889v0zM581.983 107.838h-201.385v124.784c31.96-9.144 65.737-14.076 100.687-14.076s68.736 4.932 100.698 14.076v-124.784zM581.983 47.103c0-17.664-14.695-32.029-32.763-32.029h-135.859c-18.068 0-32.763 14.365-32.763 32.029v1.234h201.385v-1.234zM569.713 291.131c-1.409 45.849 2.499 130.647 44.058 187.561 6.618 9.064 7.502 20.995 2.286 30.899-5.219 9.905-15.661 16.128-27.055 16.128h-215.432c-11.392 0-21.836-6.223-27.053-16.128s-4.334-21.835 2.294-30.899c41.559-56.922 45.457-141.726 44.048-187.561-121.362 36.922-209.722 147.757-209.722 278.388 0 160.72 133.746 291.47 298.149 291.47 164.405 0 298.16-130.749 298.16-291.47 0-130.639-88.371-241.474-209.732-278.388v0zM88.075 831.009c5.947-5.805 13.728-8.712 21.509-8.712 7.796 0 15.577 2.907 21.524 8.712 11.876 11.619 11.876 30.453 0 42.071l-79.163 77.39c-11.885 11.619-31.148 11.619-43.033 0s-11.885-30.453 0-42.071l79.163-77.39zM852.981 822.297c7.79 0 15.579 2.907 21.518 8.712l79.155 77.39c11.891 11.619 11.891 30.453 0 42.071-11.885 11.619-31.15 11.619-43.035 0l-79.155-77.382c-11.885-11.619-11.885-30.461 0-42.079 5.947-5.805 13.736-8.712 21.518-8.712v0zM874.498 308.020c-11.876 11.616-31.142 11.625-43.027 0.006-11.893-11.619-11.893-30.45 0-42.069l79.147-77.39c5.947-5.805 13.736-8.712 21.526-8.712 7.781 0 15.571 2.907 21.509 8.712 11.891 11.619 11.891 30.453 0 42.071l-79.155 77.382zM88.075 308.026l-79.163-77.388c-11.885-11.619-11.885-30.453 0-42.071 5.938-5.813 13.728-8.712 21.518-8.712 7.781 0 15.577 2.898 21.515 8.712l79.163 77.39c11.876 11.619 11.876 30.444 0 42.069-11.885 11.619-31.148 11.619-43.033 0v0z" />
<glyph unicode="&#xe90c;" glyph-name="icon-delete" horiz-adv-x="755" d="M88.397-14.651c1.135-27.585 23.554-49.346 50.807-49.346h474.755c27.262 0 49.669 21.761 50.819 49.346l33.904 724.795h-644.192l33.907-724.795zM483.985 530.12c0 11.546 9.24 20.918 20.654 20.918h33.038c11.401 0 20.657-9.373 20.657-20.918v-414.091c0-11.561-9.255-20.918-20.657-20.918h-33.038c-11.401 0-20.654 9.357-20.654 20.918v414.091zM339.419 530.12c0 11.546 9.24 20.918 20.644 20.918h33.048c11.401 0 20.644-9.373 20.644-20.918v-414.091c0-11.561-9.243-20.918-20.644-20.918h-33.048c-11.404 0-20.644 9.357-20.644 20.918v414.091zM194.841 530.12c0 11.546 9.24 20.918 20.657 20.918h33.035c11.404 0 20.657-9.373 20.657-20.918v-414.091c0-11.561-9.252-20.918-20.657-20.918h-33.035c-11.404 0-20.657 9.357-20.657 20.918v414.091zM721.259 906.608h-219.023v41.934c0 5.956-4.771 10.788-10.653 10.788h-229.991c-5.885 0-10.656-4.832-10.656-10.788v-41.921h-219.023c-17.623 0-31.913-14.471-31.913-32.33v-101.517h753.172v101.517c0 17.846-14.29 32.317-31.913 32.317v0z" />
<glyph unicode="&#xe90d;" glyph-name="icon-love-fill" horiz-adv-x="1067" d="M529.017-36.822c-9.954 0-19.465 4.174-26.23 11.512l-422.865 458.207c-0.111 0.115-0.222 0.241-0.322 0.353-51.329 57.143-79.6 132.854-79.6 213.219s28.27 156.076 79.6 213.219l6.418 7.14c52.253 58.158 122.009 90.193 196.436 90.193s144.198-32.035 196.451-90.193l50.112-55.79 50.127 55.79c52.253 58.158 122.009 90.193 196.436 90.193s144.198-32.035 196.451-90.193l6.404-7.14c51.34-57.143 79.614-132.869 79.614-213.219 0-80.365-28.274-156.091-79.6-213.219-0.1-0.126-0.211-0.238-0.322-0.353l-422.865-458.207c-6.769-7.338-16.276-11.512-26.244-11.512z" />
<glyph unicode="&#xe90e;" glyph-name="icon-bell" horiz-adv-x="922" d="M447.7-64c57.863 0 105.128 46.016 105.128 102.528h-210.586c0-56.512 47.594-102.528 105.457-102.528v0zM789.943 243.264v281.472c0 158.784-110.592 286.784-263.314 322.496v36.032c0 40.96-36.798 76.736-78.928 76.736-42.196 0-78.928-35.776-78.928-76.736v-36.032c-152.788-35.712-263.314-163.712-263.314-322.496v-281.472l-105.457-102.528v-51.264h895.4v51.264l-105.457 102.528zM684.485 192h-473.9v332.736c0 128 105.457 230.528 237.115 230.528s236.785-102.528 236.785-230.528v-332.736z" />
<glyph unicode="&#xe90f;" glyph-name="icon-invest" d="M104.887 291.504c-11.687 37.248-17.522 77.44-17.522 117.552 0 174.88 119.434 323.952 285.468 372.752v-48.8l218.47 108.992-218.47 108.944v-77.44c-212.651-54.448-372.834-240.816-372.834-464.448 0-31.552 2.926-63.12 8.761-91.744l8.696 45.872 87.43-71.68zM818.469 340.256l-14.596-240.88 203.939 131.872-66.983 40.192c14.531 42.992 20.382 88.88 20.382 137.616 0 206.448-136.891 381.312-323.308 447.264l34.93-25.824-104.838-42.992c174.73-40.128 305.851-194.944 305.851-378.448 0-31.552-5.851-63.056-11.687-91.744l-43.691 22.944zM771.868 148.128c-72.818-77.44-174.795-126.192-291.304-126.192-104.822 0-200.948 43.072-270.856 109.008l43.691 22.928-203.874 131.872 14.531-240.8 66.983 40.112c87.43-91.744 212.651-149.056 349.525-149.056 119.434 0 227.247 43.008 311.686 114.688l-34.914-11.504 14.531 108.944zM448.577 678.56v-63.056c-72.834-14.384-113.599-60.256-113.599-117.568 0-63.12 49.526-97.504 119.434-120.432 49.526-17.248 69.908-31.568 69.908-57.376 0-25.76-26.283-40.128-64.138-40.128-43.674 0-81.514 14.368-110.657 28.688l-20.382-77.44c26.218-14.304 69.908-25.808 113.583-28.624v-63.12h66.983v68.816c75.76 14.304 119.434 63.056 119.434 120.432 0 60.192-32.069 94.624-110.673 123.248-58.287 20.064-81.579 34.432-81.579 57.376 0 17.184 14.596 37.248 58.287 37.248 49.526 0 78.604-14.368 96.126-22.944l20.382 74.576c-23.308 11.424-52.452 20.064-96.126 22.928v57.312l-66.983 0.064z" />
<glyph unicode="&#xe912;" glyph-name="icon-sm-love" horiz-adv-x="1092" d="M792.030 935.424c-93.116 0-185.89-43.759-245.897-114.688-60.006 70.929-152.781 114.688-245.897 114.688-169.028 0-300.237-131.209-300.237-300.237 0-207.735 185.617-377.105 469.606-628.326l76.527-70.929 76.527 70.929c278.391 256.819 469.606 426.189 469.606 628.326 0 169.028-131.209 300.237-300.237 300.237v0zM551.458 83.456h-5.325l-5.325 5.598c-262.417 234.633-431.445 387.686-431.445 546.133 0 109.022 81.852 190.874 190.874 190.874 82.193 0 164.045-54.34 196.813-130.935h103.765c27.17 76.595 109.022 130.935 191.215 130.935 109.022 0 190.874-81.852 190.874-190.874 0-158.447-169.028-311.501-431.445-551.731v0z" />
<glyph unicode="&#xe913;" glyph-name="icon-following" d="M589.864 222.621c-30.024 14.992-79.882 39.916-92.001 51.339 50.683 62.215 80.041 132.543 80.041 194.053 0 41.755 0 93.711-23.343 140.039-21.086 41.745-68.151 91.454-172.817 91.454-104.657 0-151.721-49.709-172.768-91.414-23.423-46.368-23.423-98.324-23.423-140.079 0-61.549 29.358-131.808 80.041-194.053-12.079-11.463-61.947-36.387-91.921-51.339-59.422-29.746-97.171-49.401-119.689-71.929-49.947-49.977-53.715-133.786-53.984-150.051-0.268-17.050 6.333-33.524 18.293-45.633 11.92-12.159 28.274-18.989 45.314-18.989h636.272c17.050 0 33.325 6.83 45.324 18.989 11.96 12.109 18.601 28.583 18.293 45.633-0.268 16.265-4.036 100.074-53.944 150.051-22.558 22.528-60.307 42.183-119.689 71.929v0zM63.607-0.452c0.427 26.723 8.391 79.146 35.343 106.138 15.609 15.609 52.622 34.717 103.146 59.998 59.81 29.865 91.106 46.756 107.222 62.056l42.919 40.582-37.282 45.792c-41.785 51.299-65.755 107.421-65.755 153.898 0 36.854 0 78.609 16.543 111.377 19.227 38.027 57.165 56.509 116 56.509s96.823-18.482 116-56.509c16.583-32.808 16.583-74.523 16.583-111.377 0-46.478-23.96-102.559-65.785-153.938l-37.321-45.822 42.998-40.582c16.076-15.231 47.372-32.082 107.182-61.987 50.524-25.322 87.567-44.43 103.146-59.998 27.022-27.071 34.945-79.415 35.333-106.059l-636.272-0.080zM964.041 405.181c-22.528 22.528-60.237 42.213-119.689 71.919-29.984 15.032-79.852 39.926-91.921 51.339 50.633 62.255 80.031 132.543 80.031 194.063 0 41.745 0 93.751-23.413 140.079-21.047 41.706-68.121 91.454-172.778 91.454s-151.731-49.749-172.778-91.454c-21.822-43.147-23.303-91.106-23.373-131.221h63.647c0.159 34.558 1.243 72.306 16.503 102.519 19.188 38.057 57.165 56.549 116 56.549s96.773-18.492 116-56.509c16.543-32.818 16.543-74.563 16.543-111.417 0-46.448-23.96-102.559-65.745-153.908l-37.321-45.822 42.988-40.582c16.076-15.221 47.343-32.072 107.142-61.977 50.564-25.322 87.577-44.43 103.146-60.038 27.071-27.032 34.955-79.385 35.383-106.059h-286.332l95.421-63.617h190.911c17.050 0 33.355 6.88 45.354 18.989 11.93 12.119 18.531 28.583 18.253 45.633-0.229 16.275-4.036 100.123-53.974 150.061v0z" />
<glyph unicode="&#xe914;" glyph-name="icon-message" horiz-adv-x="1451" d="M1431.296 837.291c0 31.659-25.941 57.685-57.941 57.685h-1315.328c-32 0-58.027-26.027-58.027-57.685v-72.021c0-2.987 0.341-5.632 0.683-7.595-0.341-2.389-0.683-4.693-0.683-6.997v-757.077c0-32 26.027-57.6 58.027-57.6h1315.328c32 0 57.941 25.6 57.941 57.6v757.077c0 2.987-0.256 5.632-0.597 8.277 0.341 2.987 0.597 6.059 0.597 9.387v68.949zM137.301 779.349h1153.024l-574.635-416.341-578.389 416.341zM1315.669 638.293v-587.008h-1200.043v587.008l566.357-403.627c19.712-13.995 47.701-13.995 67.328 0l566.357 403.627z" />
<glyph unicode="&#xe915;" glyph-name="icon-job" horiz-adv-x="731" d="M713.118 687.773l-232.406 234.443c-8.951 8.994-17.78 8.536-17.78 8.536h-373.416c-49.361 0-89.516-40.331-89.516-89.913v-773.864c0-49.567 40.155-89.901 89.516-89.901h542.686c49.347 0 89.513 40.334 89.513 89.901v598.381c0 8.846-2.612 16.383-8.597 22.418v0zM489.298 829.756l132.127-133.28h-110.814c-11.752 0-21.312 9.603-21.312 21.405v111.875zM655.99 66.975c0-13.179-10.668-23.894-23.788-23.894h-542.686c-13.123 0-23.802 10.715-23.802 23.894v773.864c0 13.182 10.679 23.894 23.802 23.894h340.906v-146.852c0-44.411 35.971-80.535 80.188-80.535h145.38v-570.372zM142.936 379.553c0-12.57 10.146-22.762 22.661-22.762h390.522c12.514 0 22.661 10.192 22.661 22.762s-10.146 22.762-22.661 22.762h-390.522c-12.514 0-22.661-10.192-22.661-22.762v0zM556.119 288.505h-390.522c-12.514 0-22.661-10.192-22.661-22.762s10.146-22.762 22.661-22.762h390.522c12.514 0 22.661 10.192 22.661 22.762s-10.146 22.762-22.661 22.762v0zM556.119 174.696h-390.522c-12.514 0-22.661-10.192-22.661-22.762s10.146-22.762 22.661-22.762h390.522c12.514 0 22.661 10.192 22.661 22.762s-10.146 22.762-22.661 22.762v0zM157.076 470.612h265.225c24.717 0-20.868 109.018-20.868 109.018-2.688 6.49-9.163 10.325-15.404 13.205l-41.934 19.393-20.151 17.071-31.955-31.921 14.262-95.771c0.057-0.344-0.034-0.689-0.232-0.967l-15.29-21.015c-0.244-0.333-0.632-0.535-1.040-0.535-0.422 0-0.81 0.202-1.054 0.535l-15.29 21.015c-0.198 0.279-0.289 0.623-0.232 0.967l14.262 95.782-31.955 31.909-20.14-17.071-41.945-19.393c-6.209-2.569-12.107-5.656-15.404-13.205 0 0-45.574-109.018-20.856-109.018v0zM289.69 629.912c42.897 0 74.897 40.144 75.628 107.465 0.465 46.713-21.667 74.665-75.628 74.665-53.964 0-76.106-27.952-75.63-74.665 0.731-67.321 32.731-107.465 75.63-107.465v0z" />
<glyph unicode="&#xe916;" glyph-name="icon-follow" horiz-adv-x="901" d="M181.653 390.372c47.791-38.865 106.211-62.326 169.825-62.326 64.014 0 122.434 23.461 170.145 62.326 42.756-3.397 79.598-27.727 99.897-62.326h70.567c-19.979 54.348-64.014 97.163-119.557 115.727 41.238 54.585 66.811 123.705 66.811 200.251 0 174.656-128.907 315.977-287.864 315.977-158.877 0-287.464-141.321-287.464-315.977 0-76.545 25.574-145.665 66.811-200.251-75.842-25.278-130.825-95.346-130.825-179.001v-126.154c0-104.983 85.832-189.823 191.643-189.823h319.671v63.274h-319.671c-70.487 0-127.629 56.481-127.629 126.549v126.154c0 66.355 51.787 120.387 117.639 125.601v0zM128.028 644.023c0 139.504 100.137 252.703 223.45 252.703 123.633 0 223.85-113.199 223.85-252.703s-100.217-252.703-223.85-252.703c-123.313 0-223.45 113.199-223.45 252.703v0zM863.192 138.617h-95.821v94.714c0 17.3-14.385 31.44-32.207 31.44-17.502 0-31.807-14.14-31.807-31.44v-94.714h-95.821c-17.822 0-32.207-14.219-32.207-31.835 0-17.3 14.385-31.44 32.207-31.44h95.821v-94.714c0-17.616 14.305-31.835 31.807-31.835 17.822 0 32.207 14.219 32.207 31.835v94.714h95.821c17.502 0 31.807 14.14 31.807 31.44 0 17.616-14.305 31.835-31.807 31.835v0z" />
<glyph unicode="&#xe917;" glyph-name="icon-love" horiz-adv-x="1067" d="M529.017-36.822c-9.954 0-19.465 4.174-26.23 11.512l-422.865 458.207c-0.111 0.115-0.222 0.241-0.322 0.353-51.329 57.143-79.6 132.854-79.6 213.219s28.27 156.076 79.6 213.219l6.418 7.14c52.253 58.158 122.009 90.193 196.436 90.193s144.198-32.035 196.451-90.193l50.112-55.79 50.127 55.79c52.253 58.158 122.009 90.193 196.436 90.193s144.198-32.035 196.451-90.193l6.404-7.14c51.34-57.143 79.614-132.869 79.614-213.219 0-80.365-28.274-156.091-79.6-213.219-0.1-0.126-0.211-0.238-0.322-0.353l-422.865-458.207c-6.769-7.338-16.276-11.512-26.244-11.512v0zM132.565 481.662l396.452-429.587 396.467 429.587c81.558 90.992 81.515 238.86-0.168 329.783l-6.404 7.125c-38.522 42.874-89.418 66.478-143.332 66.478-53.917 0-104.81-23.603-143.303-66.463l-76.693-85.356c-6.783-7.546-16.43-11.861-26.552-11.861s-19.784 4.315-26.567 11.861l-76.679 85.356c-38.508 42.86-89.4 66.463-143.317 66.463-53.914 0-104.81-23.603-143.317-66.463l-6.432-7.14c-81.669-90.923-81.726-238.806-0.154-329.783v0z" />
<glyph unicode="&#xe918;" glyph-name="icon-contact" horiz-adv-x="1317" d="M1149.203 957.399h-985.033c-90.657 0-164.17-74.547-164.17-166.48v-665.936c0-91.933 73.512-166.48 164.17-166.48h985.033c90.673 0 164.186 74.547 164.186 166.48v665.936c0 91.933-73.512 166.48-164.186 166.48v0zM878.982 513.146l347.504 301.995c2.405-7.797 4.81-15.611 4.81-24.221v-665.936c0-5.765-2.168-10.899-3.28-16.333l-349.034 404.496zM1149.203 874.151c5.464 0 10.274-2.107 15.394-3.161l-507.903-441.499-507.919 441.499c5.137 1.054 9.947 3.161 15.394 3.161h985.033zM85.335 108.725c-1.125 5.45-3.242 10.493-3.242 16.258v665.936c0 8.61 2.44 16.424 4.845 24.221l347.379-301.92-348.983-404.496zM164.17 41.735c-8.292 0-15.83 2.452-23.411 4.803l355.921 412.475 133.323-115.839c7.651-6.76 17.184-10.087 26.691-10.087 9.494 0 19.037 3.326 26.691 10.087l133.307 115.839 355.921-412.475c-7.526-2.364-15.067-4.803-23.411-4.803h-985.033z" />
<glyph unicode="&#xe919;" glyph-name="icon-admin" horiz-adv-x="1536" d="M1150.534 499.187c-47.488 0-86.144 38.656-86.144 86.208 0 47.488 38.656 86.080 86.144 86.080 47.552 0 86.208-38.592 86.208-86.080 0-47.552-38.656-86.208-86.208-86.208v0zM1150.534 737.075c-83.648 0-151.68-68.096-151.68-151.68 0-83.712 68.032-151.744 151.68-151.744 83.712 0 151.68 68.032 151.68 151.744 0 83.584-67.968 151.68-151.68 151.68v0zM1465.734 548.723l-56.512-20.096c-9.856-3.52-17.408-11.52-20.416-21.632-5.056-17.088-11.712-33.152-19.776-48-4.992-9.152-5.312-20.224-0.832-29.76l25.664-53.952c-12.416-14.784-26.048-28.544-41.024-40.896l-53.888 25.6c-9.472 4.544-20.48 4.224-29.76-0.832-14.848-8-30.976-14.656-48-19.712-10.112-3.008-18.112-10.56-21.568-20.416l-20.16-56.576c-20.48-2.048-37.312-2.048-57.792 0l-20.16 56.576c-3.52 9.856-11.52 17.472-21.568 20.416-17.088 5.056-33.28 11.712-48.064 19.712-9.28 5.12-20.288 5.376-29.76 0.832l-53.888-25.6c-14.912 12.352-28.544 26.112-40.96 40.896l25.664 53.952c4.48 9.536 4.16 20.608-0.832 29.76-8.064 14.784-14.72 30.912-19.776 48.064-3.008 10.048-10.624 18.048-20.48 21.568l-56.512 20.096c-1.024 10.304-1.536 19.776-1.536 28.928s0.512 18.624 1.536 28.928l56.512 20.096c9.92 3.52 17.472 11.52 20.48 21.568 5.056 17.088 11.648 33.28 19.776 48.064 4.992 9.216 5.312 20.224 0.832 29.76l-25.664 53.888c12.416 14.848 26.112 28.608 40.96 40.96l53.952-25.6c9.408-4.544 20.48-4.16 29.696 0.832 14.848 8.064 30.976 14.656 48.064 19.712 10.048 3.008 18.112 10.56 21.568 20.48l20.16 56.448c20.288 2.176 37.12 2.176 57.792 0l20.16-56.448c3.456-9.92 11.456-17.472 21.568-20.48 17.024-5.056 33.216-11.648 48-19.712 9.28-5.056 20.288-5.376 29.76-0.832l53.888 25.6c14.912-12.352 28.608-26.112 41.024-40.96l-25.664-53.888c-4.48-9.536-4.16-20.544 0.832-29.76 8.064-14.848 14.72-30.976 19.776-48.064 3.008-10.048 10.56-18.048 20.416-21.568l56.512-20.096c1.088-10.24 1.6-19.776 1.6-28.928s-0.512-18.624-1.6-28.928v0zM1528.070 635.635c-1.856 11.968-10.112 21.952-21.44 25.984l-60.288 21.44c-3.52 10.048-7.552 19.904-11.968 29.376l27.328 57.664c5.184 10.88 4.032 23.744-3.136 33.536-23.168 31.36-50.688 59.008-82.112 81.984-9.728 7.104-22.528 8.384-33.472 3.2l-57.664-27.392c-9.472 4.416-19.264 8.512-29.376 12.096l-21.44 60.224c-4.032 11.328-13.952 19.584-25.92 21.376-42.368 6.528-73.664 6.528-116.096 0-11.904-1.792-21.888-10.048-25.856-21.376l-21.44-60.224c-10.112-3.584-19.968-7.68-29.44-12.096l-57.664 27.392c-10.88 5.184-23.744 3.904-33.472-3.2-31.296-22.976-58.944-50.624-82.048-81.984-7.168-9.792-8.384-22.656-3.2-33.536l27.392-57.664c-4.416-9.472-8.448-19.328-12.032-29.376l-60.288-21.504c-11.328-3.968-19.584-14.016-21.376-25.92-3.328-21.568-4.864-40-4.864-57.984s1.536-36.416 4.864-58.048c1.792-11.904 10.048-21.824 21.44-25.92l60.224-21.44c3.584-10.112 7.616-19.904 12.032-29.376l-27.392-57.664c-5.184-10.88-3.904-23.744 3.2-33.472 23.040-31.424 50.688-59.072 82.048-82.048 9.728-7.168 22.592-8.448 33.472-3.2l57.664 27.392c9.472-4.48 19.328-8.512 29.44-12.032l21.44-60.288c3.968-11.392 13.952-19.584 25.856-21.376 21.248-3.328 40.256-4.864 58.048-4.864 17.856 0 36.864 1.536 58.048 4.864 11.904 1.792 21.888 9.984 25.92 21.376l21.376 60.288c10.176 3.52 19.968 7.552 29.44 12.032l57.664-27.392c10.944-5.248 23.744-3.968 33.472 3.2 31.424 23.040 59.008 50.688 82.112 82.048 7.168 9.728 8.32 22.592 3.136 33.472l-27.328 57.664c4.416 9.472 8.448 19.328 11.968 29.376l60.224 21.44c11.392 4.096 19.648 14.016 21.504 25.92 3.264 21.632 4.8 40 4.8 58.048 0 17.984-1.536 36.416-4.8 57.984v0zM75.526 14.771c0.512 31.744 9.984 93.952 41.984 126.016 18.496 18.56 62.464 41.28 122.496 71.296 70.976 35.392 108.16 55.488 127.296 73.664l51.008 48.192-44.288 54.4c-49.664 60.928-78.080 127.552-78.080 182.72 0 43.776 0 93.376 19.648 132.224 22.848 45.248 67.904 67.136 137.728 67.136 69.888 0 115.008-21.888 137.728-67.136 19.712-38.912 19.712-88.448 19.712-132.224 0-55.168-28.416-121.728-78.080-182.784l-44.352-54.4 51.072-48.192c19.072-18.112 56.256-38.144 127.232-73.6 60.032-30.080 104-52.8 122.56-71.296 32.064-32.128 41.472-94.272 41.92-125.888l-755.584-0.128zM591.238 340.595c60.16 73.92 95.040 157.44 95.040 230.464 0 49.6 0 111.296-27.776 166.336-25.024 49.536-80.896 108.608-205.184 108.608s-180.16-59.072-205.184-108.544c-27.776-55.104-27.776-116.8-27.776-166.4 0-73.088 34.88-156.48 95.040-230.464-14.336-13.568-73.536-43.136-109.12-60.928-70.592-35.264-115.456-58.688-142.208-85.44-59.264-59.264-63.744-158.848-64.064-178.176-0.32-20.224 7.552-39.808 21.696-54.208s33.6-22.528 53.824-22.528h755.584c20.288 0 39.552 8.128 53.824 22.528 14.208 14.4 22.080 33.984 21.696 54.208-0.256 19.328-4.736 118.912-64 178.176-26.816 26.752-71.68 50.176-142.144 85.44-35.648 17.856-94.912 47.424-109.248 60.928z" />
<glyph unicode="&#xe91a;" glyph-name="icon-feed" horiz-adv-x="973" d="M838.686 466.448c-22.937 0-41.497-18.683-41.497-41.695v-211.284c0-61.258-38.356-116.813-95.466-138.247-16.392-6.137-33.652-9.244-51.322-9.244h-420.583c-80.937 0-146.789 66.16-146.789 147.491v422.561c0 81.331 65.852 147.519 146.789 147.519h210.278c22.937 0 41.504 18.683 41.504 41.702s-18.567 41.695-41.504 41.695h-210.278c-126.728 0-229.817-103.575-229.817-230.917v-422.561c0-127.334 103.089-230.917 229.817-230.917h420.555c27.628 0 54.664 4.88 80.367 14.536 89.407 33.513 149.45 120.464 149.45 216.381v211.284c0 23.012-18.567 41.695-41.504 41.695v0zM756.012 955.748c-117.202 0-212.557-95.805-212.557-213.574 0-117.762 95.355-213.567 212.557-213.567s212.557 95.805 212.557 213.567c0 117.769-95.355 213.574-212.557 213.574v0zM756.012 612.005c-71.417 0-129.528 58.417-129.528 130.169 0 71.787 58.090 130.148 129.528 130.148s129.549-58.361 129.549-130.148c0-71.78-58.139-130.169-129.549-130.169v0zM325.93 512.787c0-23.019 18.567-41.702 41.504-41.702h145.295c22.937 0 41.504 18.683 41.504 41.702s-18.567 41.702-41.504 41.702h-145.295c-22.909 0-41.504-18.683-41.504-41.702v0zM512.728 378.387h-145.295c-22.909 0-41.504-18.683-41.504-41.702s18.594-41.695 41.504-41.695h145.295c22.937 0 41.504 18.676 41.504 41.695s-18.567 41.702-41.504 41.702v0z" />
</font>
</defs>
</svg>
