<svg xmlns="http://www.w3.org/2000/svg" width="31" height="31" viewBox="0 0 31 31">
  <path fill="#FFF" d="M0,0 L0,29.9588889 L29.9588889,29.9588889 L29.9588889,0 L0,0 Z M10.0577778,23.7967901 L6.54271605,23.7967901 L6.54271605,11.5261728 L10.0576543,11.5261728 L10.0576543,23.7967901 L10.0577778,23.7967901 Z M8.33493827,10.1269136 C7.15592593,10.1269136 6.19679012,9.23753086 6.19679012,8.14444444 C6.19679012,7.05135802 7.15604938,6.16197531 8.33493827,6.16197531 C9.51382716,6.16197531 10.4730864,7.05135802 10.4730864,8.14444444 C10.4730864,9.23753086 9.51382716,10.1269136 8.33493827,10.1269136 Z M23.7620988,23.7967901 L20.1606173,23.7967901 L20.1606173,16.5195062 C20.161358,16.5046914 20.2139506,15.3493827 19.5588889,14.6592593 C19.2328395,14.315679 18.7837037,14.1414815 18.2238272,14.1414815 C16.8154321,14.1414815 16.1040741,15.1555556 15.8025926,15.7697531 L15.8025926,23.7967901 L12.2875309,23.7967901 L12.2875309,11.5261728 L15.8024691,11.5261728 L15.8024691,12.5628395 C16.9530864,11.6293827 18.2453086,11.1369136 19.5475309,11.1369136 C22.8812346,11.1369136 23.7620988,13.7409877 23.7620988,15.1179012 L23.7620988,23.7967901 Z" transform="translate(.842 .371)"/>
</svg>
