<svg xmlns="http://www.w3.org/2000/svg" width="31" height="31" viewBox="0 0 31 31">
  <path fill="#FFF" d="M0,0 L0,30 L30,30 L30,0 L0,0 Z M19.8464176,8.25606593 L17.5015385,8.25606593 C17.0370989,8.25606593 16.5683736,8.73606593 16.5683736,9.09316484 L16.5683736,11.4841978 L19.8418022,11.4841978 C19.71,13.3176264 19.4394066,14.9941978 19.4394066,14.9941978 L16.5516264,14.9941978 L16.5516264,25.3846154 L12.2483736,25.3846154 L12.2483736,14.9930769 L10.1535824,14.9930769 L10.1535824,11.4966593 L12.2483736,11.4966593 L12.2483736,8.63802198 C12.2483736,8.1152967 12.1424835,4.61545055 16.6575165,4.61545055 L19.8464835,4.61545055 L19.8464835,8.25606593 L19.8464176,8.25606593 Z" transform="translate(.353 .371)"/>
</svg>
