<svg xmlns="http://www.w3.org/2000/svg" width="31" height="31" viewBox="0 0 31 31">
  <path fill="#FFF" d="M0,0 L0,29.9588889 L29.9588889,29.9588889 L29.9588889,0 L0,0 Z M22.9792593,10.6719753 C22.4669136,11.118642 21.9020988,11.4995062 21.9020988,11.4995062 C21.9020988,11.4995062 22.3530864,13.408642 21.0919753,16.2985185 C19.8308642,19.1885185 17.1161728,21.4303704 14.2261728,21.9207407 C11.3362963,22.4111111 9.81246914,22.1134568 8.63888889,21.7806173 C7.4654321,21.4479012 6.20432099,20.5720988 6.20432099,20.5720988 C6.20432099,20.5720988 8.25358025,20.6246914 9.5145679,20.204321 C10.775679,19.7839506 11.5112346,19.1534568 11.5112346,19.1534568 C11.5112346,19.1534568 10.1625926,19.0483951 9.09419753,18.1025926 C8.02580247,17.1567901 7.97320988,16.4561728 7.97320988,16.4561728 C7.97320988,16.4561728 8.5337037,16.5787654 9.07666667,16.5787654 C9.61962963,16.5787654 9.70716049,16.5437037 9.70716049,16.5437037 C9.70716049,16.5437037 8.18333333,16.1233333 7.34271605,14.7396296 C6.50197531,13.3559259 6.71222222,12.8304938 6.71222222,12.8304938 C6.71222222,12.8304938 7.02753086,13.0932099 7.58802469,13.2683951 C8.14851852,13.4435802 8.48123457,13.3209877 8.48123457,13.3209877 C8.48123457,13.3209877 7.04506173,12.5328395 6.94,10.8864198 C6.83493827,9.24 7.37790123,8.46938272 7.37790123,8.46938272 C7.37790123,8.46938272 8.35876543,10.2559259 10.8458025,11.2717284 C13.3328395,12.2875309 14.8391358,12.2175309 14.8391358,12.2175309 C14.8391358,12.2175309 14.0685185,9.38012346 17.0109877,8.15407407 C19.9534568,6.92802469 21.2145679,9.09987654 21.2145679,9.09987654 C21.2145679,9.09987654 22.1385185,8.83271605 22.5719753,8.60950617 C23.0054321,8.3862963 23.2681481,8.09716049 23.2681481,8.09716049 C23.2681481,8.09716049 23.1235802,8.70135802 22.742716,9.20061728 C22.3617284,9.69975309 21.8232099,10.172716 21.8232099,10.172716 C21.8232099,10.172716 22.4012346,10.0282716 22.9134568,9.85740741 C23.4258025,9.68666667 23.7541975,9.55530864 23.7541975,9.55530864 C23.7541975,9.55530864 23.4916049,10.2253086 22.9792593,10.6719753 Z" transform="translate(.85 .371)"/>
</svg>
