<svg xmlns="http://www.w3.org/2000/svg" width="31" height="31" viewBox="0 0 31 31">
  <path fill="#FFF" d="M14.9907895,12.0098684 C13.3473684,12.0098684 12.0092105,13.3473684 12.0092105,14.9907895 C12.0092105,16.6348684 13.3473684,17.9730263 14.9907895,17.9730263 C16.6348684,17.9730263 17.9723684,16.6348684 17.9723684,14.9907895 C17.9723684,13.3473684 16.6348684,12.0098684 14.9907895,12.0098684 Z M14.9907895,12.0098684 C13.3473684,12.0098684 12.0092105,13.3473684 12.0092105,14.9907895 C12.0092105,16.6348684 13.3473684,17.9730263 14.9907895,17.9730263 C16.6348684,17.9730263 17.9723684,16.6348684 17.9723684,14.9907895 C17.9723684,13.3473684 16.6348684,12.0098684 14.9907895,12.0098684 Z M19.9578947,7.14868421 L10.0243421,7.14868421 C8.43881579,7.14868421 7.14868421,8.43881579 7.14868421,10.0243421 L7.14868421,19.9578947 C7.14868421,21.5434211 8.43881579,22.8335526 10.0243421,22.8335526 L19.9578947,22.8335526 C21.5434211,22.8335526 22.8335526,21.5434211 22.8335526,19.9578947 L22.8335526,10.0243421 C22.8335526,8.43881579 21.5434211,7.14868421 19.9578947,7.14868421 Z M14.9907895,20.1546053 C12.1440789,20.1546053 9.82763158,17.8381579 9.82763158,14.9907895 C9.82763158,12.1440789 12.1440789,9.82763158 14.9907895,9.82763158 C17.8381579,9.82763158 20.1546053,12.1440789 20.1546053,14.9907895 C20.1546053,17.8381579 17.8381579,20.1546053 14.9907895,20.1546053 Z M20.3203947,10.8953947 C19.6467105,10.8953947 19.0986842,10.3473684 19.0986842,9.67368421 C19.0986842,9 19.6467105,8.45197368 20.3203947,8.45197368 C20.9940789,8.45197368 21.5421053,9 21.5421053,9.67368421 C21.5421053,10.3473684 20.9940789,10.8953947 20.3203947,10.8953947 Z M14.9907895,12.0098684 C13.3473684,12.0098684 12.0092105,13.3473684 12.0092105,14.9907895 C12.0092105,16.6348684 13.3473684,17.9730263 14.9907895,17.9730263 C16.6348684,17.9730263 17.9723684,16.6348684 17.9723684,14.9907895 C17.9723684,13.3473684 16.6348684,12.0098684 14.9907895,12.0098684 Z M19.9578947,7.14868421 L10.0243421,7.14868421 C8.43881579,7.14868421 7.14868421,8.43881579 7.14868421,10.0243421 L7.14868421,19.9578947 C7.14868421,21.5434211 8.43881579,22.8335526 10.0243421,22.8335526 L19.9578947,22.8335526 C21.5434211,22.8335526 22.8335526,21.5434211 22.8335526,19.9578947 L22.8335526,10.0243421 C22.8335526,8.43881579 21.5434211,7.14868421 19.9578947,7.14868421 Z M14.9907895,20.1546053 C12.1440789,20.1546053 9.82763158,17.8381579 9.82763158,14.9907895 C9.82763158,12.1440789 12.1440789,9.82763158 14.9907895,9.82763158 C17.8381579,9.82763158 20.1546053,12.1440789 20.1546053,14.9907895 C20.1546053,17.8381579 17.8381579,20.1546053 14.9907895,20.1546053 Z M20.3203947,10.8953947 C19.6467105,10.8953947 19.0986842,10.3473684 19.0986842,9.67368421 C19.0986842,9 19.6467105,8.45197368 20.3203947,8.45197368 C20.9940789,8.45197368 21.5421053,9 21.5421053,9.67368421 C21.5421053,10.3473684 20.9940789,10.8953947 20.3203947,10.8953947 Z M14.9907895,12.0098684 C13.3473684,12.0098684 12.0092105,13.3473684 12.0092105,14.9907895 C12.0092105,16.6348684 13.3473684,17.9730263 14.9907895,17.9730263 C16.6348684,17.9730263 17.9723684,16.6348684 17.9723684,14.9907895 C17.9723684,13.3473684 16.6348684,12.0098684 14.9907895,12.0098684 Z M0,0 L0,29.9822368 L29.9822368,29.9822368 L29.9822368,0 L0,0 Z M25.0151316,19.9578947 C25.0151316,22.7467105 22.7467105,25.0151316 19.9578947,25.0151316 L10.0243421,25.0151316 C7.23552632,25.0151316 4.96710526,22.7467105 4.96710526,19.9578947 L4.96710526,10.0243421 C4.96710526,7.23552632 7.23552632,4.96710526 10.0243421,4.96710526 L19.9578947,4.96710526 C22.7467105,4.96710526 25.0151316,7.23552632 25.0151316,10.0243421 L25.0151316,19.9578947 Z M19.9578947,7.14868421 L10.0243421,7.14868421 C8.43881579,7.14868421 7.14868421,8.43881579 7.14868421,10.0243421 L7.14868421,19.9578947 C7.14868421,21.5434211 8.43881579,22.8335526 10.0243421,22.8335526 L19.9578947,22.8335526 C21.5434211,22.8335526 22.8335526,21.5434211 22.8335526,19.9578947 L22.8335526,10.0243421 C22.8335526,8.43881579 21.5434211,7.14868421 19.9578947,7.14868421 Z M14.9907895,20.1546053 C12.1440789,20.1546053 9.82763158,17.8381579 9.82763158,14.9907895 C9.82763158,12.1440789 12.1440789,9.82763158 14.9907895,9.82763158 C17.8381579,9.82763158 20.1546053,12.1440789 20.1546053,14.9907895 C20.1546053,17.8381579 17.8381579,20.1546053 14.9907895,20.1546053 Z M20.3203947,10.8953947 C19.6467105,10.8953947 19.0986842,10.3473684 19.0986842,9.67368421 C19.0986842,9 19.6467105,8.45197368 20.3203947,8.45197368 C20.9940789,8.45197368 21.5421053,9 21.5421053,9.67368421 C21.5421053,10.3473684 20.9940789,10.8953947 20.3203947,10.8953947 Z M14.9907895,12.0098684 C13.3473684,12.0098684 12.0092105,13.3473684 12.0092105,14.9907895 C12.0092105,16.6348684 13.3473684,17.9730263 14.9907895,17.9730263 C16.6348684,17.9730263 17.9723684,16.6348684 17.9723684,14.9907895 C17.9723684,13.3473684 16.6348684,12.0098684 14.9907895,12.0098684 Z M14.9907895,12.0098684 C13.3473684,12.0098684 12.0092105,13.3473684 12.0092105,14.9907895 C12.0092105,16.6348684 13.3473684,17.9730263 14.9907895,17.9730263 C16.6348684,17.9730263 17.9723684,16.6348684 17.9723684,14.9907895 C17.9723684,13.3473684 16.6348684,12.0098684 14.9907895,12.0098684 Z M14.9907895,12.0098684 C13.3473684,12.0098684 12.0092105,13.3473684 12.0092105,14.9907895 C12.0092105,16.6348684 13.3473684,17.9730263 14.9907895,17.9730263 C16.6348684,17.9730263 17.9723684,16.6348684 17.9723684,14.9907895 C17.9723684,13.3473684 16.6348684,12.0098684 14.9907895,12.0098684 Z M19.9578947,7.14868421 L10.0243421,7.14868421 C8.43881579,7.14868421 7.14868421,8.43881579 7.14868421,10.0243421 L7.14868421,19.9578947 C7.14868421,21.5434211 8.43881579,22.8335526 10.0243421,22.8335526 L19.9578947,22.8335526 C21.5434211,22.8335526 22.8335526,21.5434211 22.8335526,19.9578947 L22.8335526,10.0243421 C22.8335526,8.43881579 21.5434211,7.14868421 19.9578947,7.14868421 Z M14.9907895,20.1546053 C12.1440789,20.1546053 9.82763158,17.8381579 9.82763158,14.9907895 C9.82763158,12.1440789 12.1440789,9.82763158 14.9907895,9.82763158 C17.8381579,9.82763158 20.1546053,12.1440789 20.1546053,14.9907895 C20.1546053,17.8381579 17.8381579,20.1546053 14.9907895,20.1546053 Z M20.3203947,10.8953947 C19.6467105,10.8953947 19.0986842,10.3473684 19.0986842,9.67368421 C19.0986842,9 19.6467105,8.45197368 20.3203947,8.45197368 C20.9940789,8.45197368 21.5421053,9 21.5421053,9.67368421 C21.5421053,10.3473684 20.9940789,10.8953947 20.3203947,10.8953947 Z M14.9907895,12.0098684 C13.3473684,12.0098684 12.0092105,13.3473684 12.0092105,14.9907895 C12.0092105,16.6348684 13.3473684,17.9730263 14.9907895,17.9730263 C16.6348684,17.9730263 17.9723684,16.6348684 17.9723684,14.9907895 C17.9723684,13.3473684 16.6348684,12.0098684 14.9907895,12.0098684 Z M14.9907895,12.0098684 C13.3473684,12.0098684 12.0092105,13.3473684 12.0092105,14.9907895 C12.0092105,16.6348684 13.3473684,17.9730263 14.9907895,17.9730263 C16.6348684,17.9730263 17.9723684,16.6348684 17.9723684,14.9907895 C17.9723684,13.3473684 16.6348684,12.0098684 14.9907895,12.0098684 Z M14.9907895,12.0098684 C13.3473684,12.0098684 12.0092105,13.3473684 12.0092105,14.9907895 C12.0092105,16.6348684 13.3473684,17.9730263 14.9907895,17.9730263 C16.6348684,17.9730263 17.9723684,16.6348684 17.9723684,14.9907895 C17.9723684,13.3473684 16.6348684,12.0098684 14.9907895,12.0098684 Z M19.9578947,7.14868421 L10.0243421,7.14868421 C8.43881579,7.14868421 7.14868421,8.43881579 7.14868421,10.0243421 L7.14868421,19.9578947 C7.14868421,21.5434211 8.43881579,22.8335526 10.0243421,22.8335526 L19.9578947,22.8335526 C21.5434211,22.8335526 22.8335526,21.5434211 22.8335526,19.9578947 L22.8335526,10.0243421 C22.8335526,8.43881579 21.5434211,7.14868421 19.9578947,7.14868421 Z M14.9907895,20.1546053 C12.1440789,20.1546053 9.82763158,17.8381579 9.82763158,14.9907895 C9.82763158,12.1440789 12.1440789,9.82763158 14.9907895,9.82763158 C17.8381579,9.82763158 20.1546053,12.1440789 20.1546053,14.9907895 C20.1546053,17.8381579 17.8381579,20.1546053 14.9907895,20.1546053 Z M20.3203947,10.8953947 C19.6467105,10.8953947 19.0986842,10.3473684 19.0986842,9.67368421 C19.0986842,9 19.6467105,8.45197368 20.3203947,8.45197368 C20.9940789,8.45197368 21.5421053,9 21.5421053,9.67368421 C21.5421053,10.3473684 20.9940789,10.8953947 20.3203947,10.8953947 Z M14.9907895,12.0098684 C13.3473684,12.0098684 12.0092105,13.3473684 12.0092105,14.9907895 C12.0092105,16.6348684 13.3473684,17.9730263 14.9907895,17.9730263 C16.6348684,17.9730263 17.9723684,16.6348684 17.9723684,14.9907895 C17.9723684,13.3473684 16.6348684,12.0098684 14.9907895,12.0098684 Z" transform="translate(.852 .29)"/>
</svg>
