<svg width="17" height="20" xmlns="http://www.w3.org/2000/svg" xmlns:xlink="http://www.w3.org/1999/xlink"><defs><path id="a" d="M0 0h17v20H0z"/></defs><g transform="matrix(-1 0 0 1 17 0)" fill="none" fill-rule="evenodd"><mask id="b" fill="#fff"><use xlink:href="#a"/></mask><path d="M8.94 13.49a5.423 5.423 0 0 1-5.415-5.42A5.423 5.423 0 0 1 8.94 2.65a5.424 5.424 0 0 1 5.414 5.42 5.423 5.423 0 0 1-5.414 5.42M8.94 0C4.495 0 .88 3.62.88 8.07c0 2.308.976 4.386 2.532 5.858L0 18.39 2.101 20l3.51-4.588a7.996 7.996 0 0 0 3.329.73c4.444 0 8.06-3.621 8.06-8.071C17 3.62 13.384 0 8.94 0" fill="#FFF" fill-rule="nonzero" mask="url(#b)"/></g></svg>