<?xml version="1.0" standalone="no"?>
<!DOCTYPE svg PUBLIC "-//W3C//DTD SVG 1.1//EN" "http://www.w3.org/Graphics/SVG/1.1/DTD/svg11.dtd" >
<svg xmlns="http://www.w3.org/2000/svg" xmlns:xlink="http://www.w3.org/1999/xlink" version="1.1">
<metadata>
Created by FontForge 20170731 at Thu Jul 27 06:26:50 2006
 By Aleksey,,,
Copyright (c) 2006 by Prinya R. nont. All rights reserved.
</metadata>
<defs>
<font id="DBPatPongX" horiz-adv-x="0" >
  <font-face 
    font-family="DB PatPong X"
    font-weight="500"
    font-stretch="normal"
    units-per-em="1000"
    panose-1="2 0 5 6 6 0 0 2 0 4"
    ascent="800"
    descent="-200"
    x-height="571"
    cap-height="747"
    bbox="-285.118 -246 950 855"
    underline-thickness="35"
    underline-position="-164"
    unicode-range="U+0020-F882"
  />
<missing-glyph horiz-adv-x="414" 
d="M422 400v-14h6q7 0 7 9q0 1 -1.5 3t-5.5 2h-6zM425 385h-3v-14h-5v34h11q12 0 12 -10q0 -7 -3 -8.5t-7 -1.5l10 -14h-5zM428 366q13 0 17.5 7t4.5 13q0 11 -5.5 17.5t-16.5 6.5t-17 -6.5t-6 -17.5q0 -8 5.5 -14t17.5 -6zM428 413q13 0 19 -8t6 -19q0 -8 -6 -15.5
t-19 -7.5q-12 0 -19 7.5t-7 15.5q0 11 7 19t19 8zM201 316q16 -1 37.5 -4t43 -7t39.5 -9.5t27 -12.5q-20 40 -62 61.5t-86 21.5q-34 0 -65 -13t-51 -40q18 2 36 3t36 1h22.5t22.5 -1zM375 395v-142q-48 15 -110 25.5t-130 10.5q-48 0 -94 -6q6 22 19 42.5t33 36t46.5 24.5
t58.5 9q31 0 56 -7t44 -17t31.5 -22t18.5 -21q0 -1 -0.5 6.5t-0.5 18.5v23v19h28zM153 127q0 8 -5.5 12t-11.5 4q-7 0 -12 -4t-5 -12t5 -11.5t12 -3.5q6 0 11.5 3.5t5.5 11.5zM32 139q0 23 9 41t24 30t34 18t39 6t38.5 -5.5t33 -16.5t23 -28t8.5 -41v-116h106v202h28v-228
h-189v26h29v119q0 30 -22 45t-54 15q-30 0 -54 -16.5t-24 -46.5v-107l58 58q-5 2 -13 10t-8 23q0 18 11 28.5t29 10.5q17 0 27.5 -11.5t10.5 -27.5q0 -14 -5.5 -21.5t-9.5 -11.5q-2 -2 -17 -16.5t-33 -31.5q-21 -20 -47 -45h-32v138z" />
    <glyph glyph-name="plusminus" unicode="&#x2b;&#x2d;" horiz-adv-x="341" 
d="M191 228v-119h-41v119h-119v41h119v119h41v-119h119v-41h-119zM8 0v36h324v-36h-324z" />
    <glyph glyph-name="ellipsis" unicode="&#x2e;&#x2e;&#x2e;" horiz-adv-x="482" 
d="M345 0v75h74v-75h-74zM204 0v75h74v-75h-74zM62 0v75h75v-75h-75z" />
    <glyph glyph-name="lessequal" unicode="&#x3c;&#x3d;" horiz-adv-x="341" 
d="M175 410l130 -248h-68l-165 248l165 247h68zM57 381l210 -322h-58l-192 267z" />
    <glyph glyph-name="greaterequal" unicode="&#x3e;&#x3d;" horiz-adv-x="341" 
d="M35 657h68l165 -247l-165 -248h-68l130 248zM323 326l-192 -267h-58l210 322z" />
    <glyph glyph-name="fongmanfunnuthai" unicode="&#xe4f;&#x22;" horiz-adv-x="500" 
d="M337 451h-57l39 194h81zM220 451h-57l39 194h81zM464 208q0 -44 -17 -83t-46 -68t-68 -46t-83 -17t-83 17t-68 46t-46 68t-17 83t17 82.5t46 67.5t67.5 46t82.5 17q45 0 84 -17t68 -46t46 -67.5t17 -82.5zM402 208q0 31 -12 59t-33 48.5t-48.5 32.5t-58.5 12
q-32 0 -59.5 -12t-48 -32.5t-32.5 -48.5t-12 -59q0 -32 12 -59.5t32.5 -48t48 -32.5t58.5 -12t59 12t48.5 32.5t32.5 48t12 59.5h1zM368 208q0 -24 -9.5 -45.5t-25.5 -37.5t-37.5 -25.5t-45.5 -9.5q-25 0 -46.5 9.5t-37.5 25.5t-25.5 37.5t-9.5 45.5t9.5 45.5t25.5 37.5
t37.5 25.5t45.5 9.5q25 0 46.5 -9.5t37.5 -25.5t25 -37.5t9 -45.5h1zM329 208q0 33 -23.5 56t-55.5 23q-33 0 -56.5 -23t-23.5 -56t23.5 -56t55.5 -23q33 0 56 23t23 56h1z" />
    <glyph glyph-name="dochadaphinthuthai" unicode="&#xe0e;&#xe3a;" horiz-adv-x="289" 
d="M187 -85l-81 44l-81 -44v58l81 44l81 -44v492q0 29 -9.5 39.5t-32.5 10.5h-43v-465h-77v523l12.5 0.5t30.5 0.5t38.5 0.5t38.5 0.5q22 0 43.5 -4t38.5 -15.5t27 -32t10 -54.5v-554h-77zM225 -207q-22 0 -33 14t-11 31t11 31t33 14t33.5 -14t11.5 -31t-11.5 -31t-33.5 -14
z" />
    <glyph glyph-name="topatakphintuthai" unicode="&#xe0f;&#xe3a;" horiz-adv-x="289" 
d="M187 -85l-54 48l-54 -50l-54 48v60l54 -48l54 48l54 -48v492q0 29 -9.5 39.5t-32.5 10.5h-43v-465h-77v523l12.5 0.5t30.5 0.5t38.5 0.5t38.5 0.5q22 0 43.5 -4t38.5 -15.5t27 -32t10 -54.5v-554h-77zM225 -207q-22 0 -33 14t-11 31t11 31t33 14t33.5 -14t11.5 -31
t-11.5 -31t-33.5 -14z" />
    <glyph glyph-name="dochadasarauthai" unicode="&#xe0e;&#xe38;" horiz-adv-x="289" 
d="M187 -85l-81 44l-81 -44v58l81 44l81 -44v492q0 29 -9.5 39.5t-32.5 10.5h-43v-465h-77v523l12.5 0.5t30.5 0.5t38.5 0.5t38.5 0.5q22 0 43.5 -4t38.5 -15.5t27 -32t10 -54.5v-554h-77zM193 -223v54h-43v50h114v-104h-71z" />
    <glyph glyph-name="topataksarauthai" unicode="&#xe0f;&#xe38;" horiz-adv-x="289" 
d="M187 -85l-54 48l-54 -50l-54 48v60l54 -48l54 48l54 -48v492q0 29 -9.5 39.5t-32.5 10.5h-43v-465h-77v523l12.5 0.5t30.5 0.5t38.5 0.5t38.5 0.5q22 0 43.5 -4t38.5 -15.5t27 -32t10 -54.5v-554h-77zM193 -223v54h-43v50h114v-104h-71z" />
    <glyph glyph-name="dochadasarauuthai" unicode="&#xe0e;&#xe39;" horiz-adv-x="289" 
d="M187 -85l-81 44l-81 -44v58l81 44l81 -44v492q0 29 -9.5 39.5t-32.5 10.5h-43v-465h-77v523l12.5 0.5t30.5 0.5t38.5 0.5t38.5 0.5q22 0 43.5 -4t38.5 -15.5t27 -32t10 -54.5v-554h-77zM264 -180q0 -13 -8.5 -21t-22 -13t-29 -7t-29.5 -2q-15 0 -30 1t-28 5.5t-22 13
t-10 23.5l-1 10l-36 1v50h104v-40q0 -8 7 -11t15 -3t14.5 3t6.5 11v40h69v-61z" />
    <glyph glyph-name="topataksarauuthai" unicode="&#xe0f;&#xe39;" horiz-adv-x="289" 
d="M187 -85l-54 48l-54 -50l-54 48v60l54 -48l54 48l54 -48v492q0 29 -9.5 39.5t-32.5 10.5h-43v-465h-77v523l12.5 0.5t30.5 0.5t38.5 0.5t38.5 0.5q22 0 43.5 -4t38.5 -15.5t27 -32t10 -54.5v-554h-77zM264 -180q0 -13 -8.5 -21t-22 -13t-29 -7t-29.5 -2q-15 0 -30 1
t-28 5.5t-22 13t-10 23.5l-1 10l-36 1v50h104v-40q0 -8 7 -11t15 -3t14.5 3t6.5 11v40h69v-61z" />
    <glyph glyph-name=".notdef" horiz-adv-x="414" 
d="M422 400v-14h6q7 0 7 9q0 1 -1.5 3t-5.5 2h-6zM425 385h-3v-14h-5v34h11q12 0 12 -10q0 -7 -3 -8.5t-7 -1.5l10 -14h-5zM428 366q13 0 17.5 7t4.5 13q0 11 -5.5 17.5t-16.5 6.5t-17 -6.5t-6 -17.5q0 -8 5.5 -14t17.5 -6zM428 413q13 0 19 -8t6 -19q0 -8 -6 -15.5
t-19 -7.5q-12 0 -19 7.5t-7 15.5q0 11 7 19t19 8zM201 316q16 -1 37.5 -4t43 -7t39.5 -9.5t27 -12.5q-20 40 -62 61.5t-86 21.5q-34 0 -65 -13t-51 -40q18 2 36 3t36 1h22.5t22.5 -1zM375 395v-142q-48 15 -110 25.5t-130 10.5q-48 0 -94 -6q6 22 19 42.5t33 36t46.5 24.5
t58.5 9q31 0 56 -7t44 -17t31.5 -22t18.5 -21q0 -1 -0.5 6.5t-0.5 18.5v23v19h28zM153 127q0 8 -5.5 12t-11.5 4q-7 0 -12 -4t-5 -12t5 -11.5t12 -3.5q6 0 11.5 3.5t5.5 11.5zM32 139q0 23 9 41t24 30t34 18t39 6t38.5 -5.5t33 -16.5t23 -28t8.5 -41v-116h106v202h28v-228
h-189v26h29v119q0 30 -22 45t-54 15q-30 0 -54 -16.5t-24 -46.5v-107l58 58q-5 2 -13 10t-8 23q0 18 11 28.5t29 10.5q17 0 27.5 -11.5t10.5 -27.5q0 -14 -5.5 -21.5t-9.5 -11.5q-2 -2 -17 -16.5t-33 -31.5q-21 -20 -47 -45h-32v138z" />
    <glyph glyph-name=".null" 
 />
    <glyph glyph-name="nonmarkingreturn" horiz-adv-x="283" 
 />
    <glyph glyph-name="space" unicode=" " horiz-adv-x="250" 
 />
    <glyph glyph-name="exclam" unicode="!" horiz-adv-x="270" 
d="M162 140h-54l-19 607h92zM102 0v65h66v-65h-66z" />
    <glyph glyph-name="quotedbl" unicode="&#x22;" horiz-adv-x="180" 
d="M106 634v114h53v-114h-53zM21 634v114h53v-114h-53z" />
    <glyph glyph-name="numbersign" unicode="#" horiz-adv-x="419" 
d="M401 337h-116l-19 -120h109l-14 -50h-103l-20 -121h-49l19 121h-50l-19 -121h-48l19 121h-106l15 50l99 1l19 119h-103l14 51h97l20 122l-1 -1h49l-19 -121h50l19 121h49l-19 -121h122zM185 337l-18 -120h49l20 120h-51z" />
    <glyph glyph-name="dollar" unicode="$" horiz-adv-x="307" 
d="M282 98q0 -42 -16 -63t-35.5 -30.5t-36.5 -10.5t-20 -2l1 -59h-42v60q-30 -1 -54 10q-20 9 -37 30.5t-17 64.5v89h79v-85q0 -16 4.5 -25t9.5 -14q6 -6 15 -8v260l-97 199q-3 3 -6 9q-5 12 -5 40v87q0 41 17 62t37 31q24 11 54 12v67h41v-67l16.5 -1t37 -10t37.5 -30.5
t17 -63.5v-92h-78v88q0 15 -4.5 24.5t-10.5 14t-10.5 6.5l-4.5 2v-283l50 -100q9 -19 18 -37t17 -32q9 -17 16 -31q0 -1 3.5 -10.5t3.5 -30.5v-71zM133 692q-9 -3 -15 -8q-5 -5 -9.5 -14t-4.5 -24v-76q0 -12 1 -21t3 -14q2 -7 5 -11l10 -20q4 -9 10 -21v209zM204 168
q0 6 -3.5 15t-8.5 18.5t-10 18t-8 13.5v-178q8 2 15 7q5 5 10 14t5 26v66z" />
    <glyph glyph-name="percent" unicode="%" horiz-adv-x="429" 
d="M158 0h-79l193 747h79zM157 504q0 -36 -19 -46.5t-44 -10.5t-43.5 10.5t-18.5 46.5v187q0 36 18.5 46t43.5 10t44 -10t19 -46v-187zM398 56q0 -17 -5 -28t-14 -17t-20.5 -8.5t-23.5 -2.5t-23.5 2.5t-20.5 8.5t-14 17t-5 28v188q0 36 19 46t44 10t44 -11t19 -45v-188z
M113 689q0 13 -5.5 17.5t-13.5 4.5t-13 -4.5t-5 -17.5v-184q0 -13 5 -17.5t13 -4.5q19 0 19 22v184zM353 242q0 13 -5 17.5t-13 4.5t-13 -4.5t-5 -17.5v-184q0 -13 5 -17.5t13 -4.5q18 0 18 22v184z" />
    <glyph glyph-name="ampersand" unicode="&#x26;" horiz-adv-x="382" 
d="M304 0l-6 14q-3 6 -6 15q-9 -8 -22.5 -15.5t-30 -13t-35.5 -8.5t-38 -1q-29 3 -55.5 10.5t-47.5 22.5t-33.5 38t-12.5 57v154q0 21 3 30.5t3 10.5t3.5 10t15.5 25l55 75q-10 10 -19 27q-8 14 -14 36.5t-5 54.5q-1 8 -1 17v37v54q0 34 8.5 54.5t23 32t34.5 15.5t42 4
t42 -4t34.5 -15.5t23 -32t8.5 -54.5v-78q0 -26 -7.5 -45t-16.5 -33q-11 -16 -23 -27q-1 0 -7 -8t-14 -17q-9 -11 -21 -24l89 -189v83h75v-171q0 -5 -1 -19t-9 -30l44 -92h-79zM195 646q0 28 -6 38.5t-23 10.5t-23 -10.5t-6 -38.5v-105q-2 -16 0 -26.5t4 -18.5q3 -9 7 -14
q4 3 13 9.5t17 18t13.5 26.5t3.5 34v76zM259 94q-36 70 -63 125q-12 24 -23 46.5t-19.5 40t-14 28.5l-5.5 11q-11 -12 -19 -24q-8 -11 -13.5 -24t-5.5 -25v-150q0 -28 20.5 -46.5t49.5 -23.5t53.5 9t39.5 33z" />
    <glyph glyph-name="quotesingle" unicode="'" horiz-adv-x="100" 
d="M21 634v114h58v-114h-58z" />
    <glyph glyph-name="parenleft" unicode="(" horiz-adv-x="135" 
d="M116 -83l-8 -0.5t-17.5 -0.5t-17.5 0.5l-8 0.5q-17 80 -29.5 145t-19 122t-7 110t5.5 109.5t18.5 120t31.5 140.5h25h26q-19 -87 -31 -152.5t-18.5 -120.5t-6 -104t6.5 -103t18.5 -118t30.5 -149z" />
    <glyph glyph-name="parenright" unicode=")" horiz-adv-x="137" 
d="M70 -83l-8 -0.5t-17.5 -0.5t-17.5 0.5l-8 0.5q18 85 30.5 149t18.5 118t6.5 103t-6 104t-18.5 120.5t-31 152.5h25h26q19 -77 31.5 -140.5t18 -120t5 -109.5t-7 -110t-18.5 -122t-29 -145z" />
    <glyph glyph-name="asterisk" unicode="*" horiz-adv-x="386" 
d="M241 261l91 -91l-28 -28l-93 93v-138h-37v137l-92 -91l-28 28l90 90h-123v37h127l-81 81l28 28l79 -79v115h37v-116l79 80l29 -28l-81 -81h127v-37h-124z" />
    <glyph glyph-name="plus" unicode="+" horiz-adv-x="310" 
d="M191 253v-110h-71v110h-103v71h103v96h71v-96h103v-71h-103z" />
    <glyph glyph-name="comma" unicode="," horiz-adv-x="146" 
d="M132 26q1 -28 -10 -48q-9 -17 -31 -30.5t-66 -9.5v51q14 -1 21.5 4.5t9.5 11.5q3 7 1 17v42h75v-38v0z" />
    <glyph glyph-name="hyphen" unicode="-" horiz-adv-x="219" 
d="M21 255v71h177v-71h-177z" />
    <glyph glyph-name="period" unicode="." horiz-adv-x="125" 
d="M25 0v75h75v-75h-75z" />
    <glyph glyph-name="slash" unicode="/" horiz-adv-x="239" 
d="M100 0h-79l119 747h79z" />
    <glyph glyph-name="zero" unicode="0" horiz-adv-x="325" 
d="M297 110q0 -34 -11 -56.5t-29.5 -36.5t-43 -20t-50.5 -6t-50.5 6t-43 20t-29.5 36.5t-11 56.5v515q0 34 11 57t29.5 37.5t43 21t50.5 6.5q22 0 46 -6.5t43.5 -21t32 -37.5t12.5 -57v-515zM220 627q0 28 -16 44t-41 16q-24 0 -40.5 -16t-16.5 -44v-519q0 -28 17 -42
t40 -14t40 13.5t17 42.5v519z" />
    <glyph glyph-name="one" unicode="1" horiz-adv-x="325" 
d="M148 0v651q-5 -13 -15 -27t-21.5 -25.5t-22.5 -20t-18 -9.5v71q23 14 42.5 40.5t34.5 58.5h77v-739h-77z" />
    <glyph glyph-name="two" unicode="2" horiz-adv-x="325" 
d="M27 0v73l162 360q1 3 4 7q2 4 6 11t9 18l4 16q2 7 3.5 14.5t1.5 14.5l1 113q0 28 -16.5 44t-40.5 16q-25 0 -41.5 -16t-16.5 -44v-62h-76v60q0 34 11 57t29.5 37.5t42.5 21t51 6.5q22 0 46 -6.5t43 -21t31.5 -37.5t12.5 -57v-125q0 -8 -1 -15.5t-2 -13.5q-1 -7 -2 -13
q-5 -14 -8.5 -21.5t-5.5 -11.5q-3 -4 -4 -6l-158 -352h190v-67h-276z" />
    <glyph glyph-name="three" unicode="3" horiz-adv-x="325" 
d="M295 109q0 -34 -11 -56.5t-29.5 -36t-42.5 -19.5t-50 -6t-50.5 6t-43 20t-29.5 36.5t-11 56.5v56h76v-59q0 -28 17.5 -42t40.5 -14t40 14t17 42v178q-2 30 -16 44t-31 18.5t-32.5 3.5t-20.5 -2v62q9 -1 24.5 -0.5t31.5 6.5t28.5 19.5t15.5 38.5v152q0 28 -16.5 44
t-40.5 16q-25 0 -41.5 -16t-16.5 -44v-62h-76v60q0 34 11.5 57t30.5 37.5t44 21t52 6.5q22 0 45 -6.5t42 -21t30.5 -37.5t11.5 -57q1 0 1 -23v-50t-0.5 -50l-0.5 -23q1 -29 -9 -48t-24 -30q-16 -13 -36 -21l11.5 -4.5t25 -15.5t24 -30.5t8.5 -50.5v-13v-31.5v-40.5v-41
v-31.5v-12.5z" />
    <glyph glyph-name="four" unicode="4" horiz-adv-x="325" 
d="M264 142v-142h-77v142h-184v79l149 518h112v-535h56v-62h-56zM187 634l-112 -430h112v430z" />
    <glyph glyph-name="five" unicode="5" horiz-adv-x="325" 
d="M297 110q0 -34 -11 -56.5t-30 -36.5t-43 -20t-50 -6t-50.5 6t-43 20t-29.5 36.5t-11 56.5v56h76v-58q0 -28 17.5 -42t40.5 -14t40 13.5t17 42.5v311q0 22 -18 34t-39 12q-22 0 -39.5 -12t-17.5 -34v-63h-77v383h268v-62h-191v-197q18 29 50 39t63.5 4t54.5 -26.5
t23 -53.5v-333v0z" />
    <glyph glyph-name="six" unicode="6" horiz-adv-x="325" 
d="M297 110q0 -34 -11 -56.5t-30 -36.5t-43 -20t-50 -6t-50.5 6t-43 20t-29.5 36.5t-11 56.5v515q0 34 11 57t29.5 37.5t42.5 21t51 6.5q22 0 46 -6.5t43.5 -21t32 -37.5t12.5 -57v-67h-77v69q0 28 -16.5 44t-40.5 16q-25 0 -41 -16t-16 -44v-181q18 28 50 38.5t63.5 4.5
t54.5 -26.5t23 -53.5v-299zM220 385q0 21 -18 33t-39 12t-39 -12t-18 -33v-277q0 -28 17 -42t40 -14t40 13.5t17 42.5v277z" />
    <glyph glyph-name="seven" unicode="7" horiz-adv-x="325" 
d="M142 0h-83l153 670h-184v69h267v-61z" />
    <glyph glyph-name="eight" unicode="8" horiz-adv-x="325" 
d="M297 109q0 -34 -11 -56.5t-30 -36t-43 -19.5t-50 -6t-50.5 6t-43 20t-29.5 36.5t-11 56.5v166q-2 31 8.5 50.5t24 30.5t25 15.5l11.5 4.5q-20 8 -35 21q-14 11 -24.5 30t-9.5 48v149q0 34 11 57t29.5 37.5t43 21t50.5 6.5q22 0 46 -6.5t43.5 -21t32 -37.5t12.5 -57v-149
q1 -29 -10 -48t-24 -30q-16 -13 -35 -21l11.5 -4.5t25 -15.5t24 -30.5t8.5 -50.5v-12.5v-31v-40v-40v-31v-12.5zM220 627q0 28 -16.5 44t-41.5 16q-24 0 -40 -16t-16 -44v-155q2 -27 11 -40t19 -18t18.5 -4.5l8.5 0.5q14 -2 26 4q10 5 19.5 18t11.5 40v155zM220 282
q-2 30 -11 44.5t-19 20t-18.5 5l-8.5 -0.5l-8.5 0.5t-18.5 -5t-19 -20t-11 -44.5v-13.5v-32.5v-41.5v-41.5v-32v-13q0 -28 17 -42t40 -14t40 13.5t17 42.5v174z" />
    <glyph glyph-name="nine" unicode="9" horiz-adv-x="325" 
d="M295 114q0 -34 -11 -57.5t-29.5 -38t-42.5 -21t-50 -6.5q-23 0 -46.5 6.5t-43 21t-32 38t-12.5 57.5v67h76v-69q0 -28 16.5 -44t41.5 -16q24 0 40.5 16t16.5 44v212q-18 -29 -50.5 -39t-63.5 -4t-54 26.5t-23 53.5v268q0 34 11 56.5t29.5 36t43 19.5t50.5 6t50 -6
t42.5 -19.5t29.5 -36t11 -56.5v-515zM219 631q0 28 -17 42t-40 14t-40.5 -13.5t-17.5 -42.5v-246q0 -21 18 -33t40 -12q21 0 39 12t18 33v246z" />
    <glyph glyph-name="colon" unicode=":" horiz-adv-x="125" 
d="M25 498v75h75v-75h-75zM25 0v75h75v-75h-75z" />
    <glyph glyph-name="semicolon" unicode=";" horiz-adv-x="141" 
d="M41 498v75h75v-75h-75zM116 26q1 -28 -10 -48q-9 -17 -31 -30.5t-66 -9.5v51q14 -1 21.5 4.5t9.5 11.5q3 7 1 17v42h75v-38z" />
    <glyph glyph-name="less" unicode="&#x3c;" horiz-adv-x="299" 
d="M198 122l-165 248l165 247h68l-130 -247l130 -248h-68z" />
    <glyph glyph-name="equal" unicode="=" horiz-adv-x="236" 
d="M29 212v70h178v-70h-178zM29 87v71h178v-71h-178z" />
    <glyph glyph-name="greater" unicode="&#x3e;" horiz-adv-x="299" 
d="M102 122h-69l130 248l-130 247h69l164 -247z" />
    <glyph glyph-name="question" unicode="?" horiz-adv-x="311" 
d="M282 416q1 -16 0 -29q-1 -11 -3.5 -22t-7.5 -16q-21 -25 -38 -45q-15 -17 -28 -33.5t-17 -20.5t-7 -13q-2 -8 -4 -20t-2 -31v-41h-68v42q0 24 2 39t4 23q3 10 6 15q6 11 18 27t25 32q14 18 31 39q4 3 6.5 11.5t4 18t2 17l0.5 7.5v53q0 29 -15 39.5t-35 10.5
q-21 0 -35.5 -10.5t-14.5 -39.5v-58h-77v62q0 34 11 54.5t28.5 32t40.5 15.5t47 4q22 0 44.5 -4t40.5 -15.5t29.5 -32t11.5 -54.5v-57zM101 0v72h76v-72h-76z" />
    <glyph glyph-name="at" unicode="@" horiz-adv-x="548" 
d="M514 250q-8 -54 -36 -100q-32 -53 -70 -53q-72 0 -92 68q-24 -44 -59 -44l-34 1q-49 1 -49 47q0 11 3 27l23 134q12 69 79 69h83q8 0 13 -8t4 -16l-34 -200q17 -38 42 -38q48 0 72 104q5 21 5 42q0 70 -48.5 121t-124.5 51q-89 0 -151 -73q-59 -69 -59 -160
q0 -77 41 -124q45 -53 128 -53t121 29l18 -34q-60 -40 -144 -40q-98 0 -158 61t-60 155q0 17 2 34q14 111 87.5 180.5t181.5 69.5q92 0 155.5 -62t63.5 -153q0 -17 -3 -35zM326 369h-50q-17 0 -20 -15l-29 -167q-2 -23 -1 -27q4 -11 23 -11q39 0 45 30z" />
    <glyph glyph-name="A" unicode="A" horiz-adv-x="318" 
d="M237 0l-30 209h-100l-26 -209h-77l114 747h83l113 -747h-77zM159 627l-44 -353h84z" />
    <glyph glyph-name="B" unicode="B" horiz-adv-x="297" 
d="M272 118q0 -61 -35.5 -90t-98.5 -28l-113 2v743l113 2q27 0 51.5 -7.5t42.5 -22.5t29 -38t11 -54v-152q2 -36 -8 -55.5t-24 -29.5q-16 -11 -37 -14l11.5 -3t25 -13.5t24 -30.5t8.5 -54v-11.5v-29v-37.5v-37v-28.5v-11.5zM195 469v12v29.5v37.5v37.5v29.5v12
q0 27 -15 43.5t-42 16.5h-34v-274q3 -1 17.5 -1.5t31 4t29.5 16.5t13 37zM195 197v82q0 25 -11.5 37t-26.5 16t-30.5 3t-22.5 -1v-274h34q25 0 41 13.5t16 42.5v81z" />
    <glyph glyph-name="C" unicode="C" horiz-adv-x="307" 
d="M282 110q0 -34 -11 -56.5t-29.5 -36.5t-42.5 -20t-50 -6q-25 0 -47.5 6t-39.5 20t-27 36.5t-10 56.5v523q0 34 10 57.5t26.5 38t39 21t48.5 6.5q22 0 46 -6.5t43 -21t31.5 -38t12.5 -57.5v-114h-76v116q0 29 -16.5 44.5t-40.5 15.5q-23 0 -35 -15.5t-12 -44.5v-527
q0 -28 12.5 -42t34.5 -14q23 0 40 13.5t17 42.5v108h76v-106v0z" />
    <glyph glyph-name="D" unicode="D" horiz-adv-x="318" 
d="M293 119q0 -33 -4 -56t-17.5 -37.5t-40 -20.5t-72.5 -5l-134 2v743l134 2q39 1 65 -7t41.5 -23.5t21.5 -38.5t6 -53v-506zM216 627q0 35 -12.5 47.5t-44.5 12.5h-57v-627h57q19 0 30 2t17 8t8 17t2 29v511z" />
    <glyph glyph-name="E" unicode="E" horiz-adv-x="253" 
d="M25 0v747h203v-58h-124v-273l124 -1v-62h-124v-295h124v-58h-203z" />
    <glyph glyph-name="F" unicode="F" horiz-adv-x="253" 
d="M104 353v-353h-79v747h203v-58h-124v-273l124 -1v-62h-124z" />
    <glyph glyph-name="G" unicode="G" horiz-adv-x="318" 
d="M293 25q-14 -14 -36.5 -21t-44.5 -10q-26 -4 -53 -3l-20.5 0.5t-46 11t-46.5 35t-21 72.5v523q0 34 11 57.5t29.5 38t43 21t50.5 6.5q22 0 46 -6.5t43.5 -21t32 -38t12.5 -57.5v-112h-77v114q0 29 -16 44.5t-41 15.5q-24 0 -40.5 -15.5t-16.5 -44.5v-527q0 -21 9 -32.5
t19.5 -17t19.5 -6l9 -0.5q13 -1 24 1q10 1 19 4t14 10v236h-54v71h131v-349v0z" />
    <glyph glyph-name="H" unicode="H" horiz-adv-x="318" 
d="M214 0v338h-110v-338h-79v747h79v-338h110v338h79v-747h-79z" />
    <glyph glyph-name="I" unicode="I" horiz-adv-x="129" 
d="M25 0v747h79v-747h-79z" />
    <glyph glyph-name="J" unicode="J" horiz-adv-x="305" 
d="M280 110q0 -34 -11 -56.5t-29.5 -36.5t-42.5 -20t-50 -6t-50.5 6t-43 20t-29.5 36.5t-11 56.5v42h76v-44q0 -28 17.5 -42t40.5 -14t40 13.5t17 42.5v639h76v-637v0z" />
    <glyph glyph-name="K" unicode="K" horiz-adv-x="305" 
d="M214 0l-110 334v-334h-79v747h79v-333l110 333h79l-124 -373l124 -374h-79z" />
    <glyph glyph-name="L" unicode="L" horiz-adv-x="274" 
d="M25 0v747h79v-672h145v-75h-224z" />
    <glyph glyph-name="M" unicode="M" horiz-adv-x="432" 
d="M332 0l1 650l-71 -650h-92l-70 650v-650h-75v747h116l75 -673l75 673h116v-747h-75z" />
    <glyph glyph-name="N" unicode="N" horiz-adv-x="311" 
d="M179 0l-83 638v-638h-71v747h108l83 -643v643h71v-747h-108z" />
    <glyph glyph-name="O" unicode="O" horiz-adv-x="318" 
d="M293 110q0 -34 -11 -56.5t-29.5 -36.5t-43 -20t-50.5 -6t-50.5 6t-43 20t-29.5 36.5t-11 56.5v523q0 34 11.5 57.5t30 38t43 21t51.5 6.5q22 0 45.5 -6.5t43 -21t31.5 -38t12 -57.5v-523zM216 635q0 29 -15.5 44.5t-39.5 15.5t-40.5 -15.5t-16.5 -44.5v-527q0 -28 16 -42
t39 -14t40 13.5t17 42.5v527z" />
    <glyph glyph-name="P" unicode="P" horiz-adv-x="297" 
d="M272 490q0 -33 -4 -58.5t-18 -43.5t-40.5 -27t-71.5 -9h-34v-352h-79v745l113 2q39 1 65 -7t41.5 -23.5t21.5 -38.5t6 -53v-135zM195 627q0 35 -12.5 47.5t-44.5 12.5h-34v-276h34q20 0 31.5 5.5t17 15t7 23.5t1.5 32v140z" />
    <glyph glyph-name="Q" unicode="Q" horiz-adv-x="318" 
d="M204 0q-6 -3 -13 -5q-6 -2 -14.5 -3t-17.5 -1q-26 0 -50.5 6t-43 20t-29.5 36.5t-11 56.5v523q0 34 11 57.5t29.5 38t43 21t50.5 6.5q22 0 46 -6.5t43.5 -21t32 -38t12.5 -57.5v-519q0 -1 -0.5 -15.5t-4.5 -23.5h42v-75h-126zM216 635q0 29 -16 44.5t-41 15.5
q-24 0 -40.5 -15.5t-16.5 -44.5v-527q0 -28 17 -42t40 -14t40 13.5t17 42.5v527z" />
    <glyph glyph-name="R" unicode="R" horiz-adv-x="297" 
d="M195 0v288q0 16 -1.5 28.5t-7 20t-17 11.5t-31.5 4h-34v-352h-79v743l113 2q39 1 65 -7t41.5 -23.5t21.5 -38.5t6 -53v-133q0 -61 -11 -83.5t-40 -25.5q14 -2 25 -13q10 -11 18 -33t8 -64v-271h-77zM195 625q0 35 -12.5 47.5t-44.5 12.5h-34v-274h34q20 0 31.5 5.5t17 15
t7 23.5t1.5 32v138z" />
    <glyph glyph-name="S" unicode="S" horiz-adv-x="307" 
d="M282 98q0 -34 -11 -55t-29 -32.5t-41 -15.5t-47 -4t-47.5 4t-41.5 15.5t-29 32.5t-11 55v89h79v-85q0 -28 14.5 -39t35.5 -11q20 0 35 10.5t15 39.5v99q0 24 -12.5 42.5t-27.5 40.5l-111 162q-14 20 -21 41.5t-7 48.5v112q0 34 11 55t29 32t41.5 15t47.5 4t47 -4t41 -15
t29 -32t11 -55v-89h-78v86q0 28 -15 39t-35 11q-21 0 -35.5 -11t-14.5 -39v-108q0 -29 9 -46.5t22 -34.5l112 -156q8 -12 14.5 -21.5t11 -19.5t7 -21.5t2.5 -26.5v-113v0z" />
    <glyph glyph-name="T" unicode="T" horiz-adv-x="303" 
d="M191 677v-677h-79v677h-91v70h261v-70h-91z" />
    <glyph glyph-name="U" unicode="U" horiz-adv-x="318" 
d="M293 110q0 -34 -11 -56.5t-29.5 -36.5t-43 -20t-50.5 -6t-50.5 6t-43 20t-29.5 36.5t-11 56.5v637h77v-639q0 -28 17 -42t40 -14t40 13.5t17 42.5v639h77v-637v0z" />
    <glyph glyph-name="V" unicode="V" horiz-adv-x="318" 
d="M201 0h-83l-114 747h77l78 -599l78 599h77z" />
    <glyph glyph-name="W" unicode="W" horiz-adv-x="482" 
d="M403 0h-92l-74 643l-58 -643h-92l-83 747h81l58 -643l48 643h91l64 -643l51 643h80z" />
    <glyph glyph-name="X" unicode="X" horiz-adv-x="320" 
d="M216 0l-56 259l-56 -259h-79l100 374l-100 373h79l56 -259l56 259h79l-100 -373l100 -374h-79z" />
    <glyph glyph-name="Y" unicode="Y" horiz-adv-x="318" 
d="M197 333v-333h-74v333l-119 414h77l78 -302l78 302h77z" />
    <glyph glyph-name="Z" unicode="Z" horiz-adv-x="316" 
d="M120 75h171v-75h-270l179 673h-179v74h278z" />
    <glyph glyph-name="bracketleft" unicode="[" horiz-adv-x="137" 
d="M65 -42q-26 120 -40 221.5t-15 198t12.5 196t42.5 215.5h51q-19 -87 -31 -159t-18.5 -136t-6 -124t6.5 -123t18.5 -133.5t30.5 -155.5h-51z" />
    <glyph glyph-name="backslash" unicode="\" horiz-adv-x="233" 
d="M135 0l-119 747h79l119 -747h-79z" />
    <glyph glyph-name="bracketright" unicode="]" horiz-adv-x="137" 
d="M14 -42q18 85 30.5 155.5t19 133.5t6.5 123t-6 124t-18.5 136t-31.5 159h52q28 -116 41.5 -215.5t13 -196t-14.5 -198t-40 -221.5h-52z" />
    <glyph glyph-name="asciicircum" unicode="^" horiz-adv-x="290" 
d="M222 435l-77 96l-76 -96l-60 -1l104 138l64 1l105 -139z" />
    <glyph glyph-name="underscore" unicode="_" horiz-adv-x="287" 
d="M0 -69v27h287v-27h-287z" />
    <glyph glyph-name="grave" unicode="`" horiz-adv-x="166" 
d="M52 459l-41 114h58l41 -114h-58z" />
    <glyph glyph-name="a" unicode="a" horiz-adv-x="289" 
d="M193 -1v38q-18 -29 -47 -39t-57 -4t-48 26.5t-20 53.5v169q0 47 27 78.5t79 31.5h60v120q0 29 -11.5 39.5t-30.5 10.5q-20 0 -31.5 -10.5t-11.5 -39.5v-49h-73v53q0 34 9.5 55t25.5 32t37 15t44 4q22 0 43.5 -4t38.5 -15t27 -32t10 -55v-477zM187 297q-26 1 -45 -3
q-17 -4 -30.5 -14.5t-13.5 -33.5v-152q0 -17 13 -29t30 -12q18 -1 32 11t14 30v203z" />
    <glyph glyph-name="b" unicode="b" horiz-adv-x="289" 
d="M264 74q0 -33 -19.5 -53.5t-46.5 -26.5t-55.5 4t-46.5 39v-37h-71v737h71v-203q18 29 46.5 39t55.5 4t46.5 -26.5t19.5 -53.5v-423zM187 477q0 17 -11 28t-28 13q-18 2 -32 -10.5t-14 -30.5v-383q0 -20 14 -31.5t32 -9.5q17 1 28 12.5t11 28.5v383z" />
    <glyph glyph-name="c" unicode="c" horiz-adv-x="255" 
d="M243 98q0 -34 -8.5 -55t-23.5 -32.5t-35 -15.5t-42 -4t-42 4t-35 15.5t-23.5 32.5t-8.5 55v375q0 34 8.5 54.5t23.5 32t34.5 15.5t42.5 4q22 0 42 -4t35 -15.5t23.5 -32t8.5 -54.5v-79h-77v75q0 29 -7.5 39.5t-24.5 10.5t-24.5 -10.5t-7.5 -39.5v-367q0 -29 7.5 -39.5
t24.5 -10.5t24.5 11t7.5 39v43h77v-47v0z" />
    <glyph glyph-name="d" unicode="d" horiz-adv-x="289" 
d="M193 0v37q-18 -29 -46.5 -39t-55.5 -4t-46.5 26.5t-19.5 53.5v423q0 33 19.5 53.5t46.5 26.5t55.5 -4t46.5 -39v203h71v-737h-71zM187 477q0 18 -14 30.5t-32 10.5q-17 -2 -28 -13t-11 -28v-383q0 -17 11 -28.5t28 -12.5q18 -2 32 9.5t14 31.5v383z" />
    <glyph glyph-name="e" unicode="e" horiz-adv-x="276" 
d="M264 98q0 -34 -10 -55t-26.5 -32.5t-38 -15.5t-44.5 -4q-24 0 -45.5 4t-38 15.5t-26.5 32.5t-10 55v375q0 34 10 54.5t26.5 32t38 15.5t45.5 4q22 0 43.5 -4t38.5 -15.5t27 -32t10 -54.5v-176h-162v-195q0 -28 11.5 -39t31.5 -11q19 0 30.5 10.5t11.5 39.5v85h77v-89z
M187 469q0 29 -11.5 39.5t-30.5 10.5q-20 0 -31.5 -10.5t-11.5 -39.5v-120h85v120z" />
    <glyph glyph-name="f" unicode="f" horiz-adv-x="177" 
d="M127 511v-511h-77v511h-46v60h46v84v7t2.5 18t9.5 23t20 21.5t34.5 13.5t53.5 -1v-27v-27q-22 2 -31 -2t-12 -11q-4 -8 0 -18v-81h45v-60h-45z" />
    <glyph glyph-name="g" unicode="g" horiz-adv-x="289" 
d="M264 -29q0 -34 -10 -54.5t-27 -32t-38.5 -15.5t-43.5 -4q-23 0 -44 4t-37 15.5t-25.5 32t-9.5 54.5v13h73v-9q0 -28 11.5 -39t31.5 -11q19 0 30.5 11t11.5 39v42v41q-5 -16 -18.5 -25.5t-31.5 -13t-38 -0.5t-36 12.5t-27 25.5t-11 38v402q0 33 19.5 53.5t46.5 26.5
t55.5 -4t46.5 -39v37h71v-600zM187 477q0 20 -14 31t-32 10q-17 -1 -28 -12.5t-11 -28.5v-362q0 -17 11 -28t28 -13q18 -2 32 10.5t14 30.5v362z" />
    <glyph glyph-name="h" unicode="h" horiz-adv-x="289" 
d="M187 0v477q0 17 -11 28.5t-28 12.5q-18 1 -32 -11t-14 -30v-477h-77v737h71v-203q18 29 46.5 39t55.5 4t46.5 -26.5t19.5 -53.5v-497h-77z" />
    <glyph glyph-name="i" unicode="i" horiz-adv-x="143" 
d="M33 655v82h77v-82h-77zM33 0v571h77v-571h-77z" />
    <glyph glyph-name="j" unicode="j" horiz-adv-x="140" 
d="M38 655v82h77v-82h-77zM115 -29q0 -68 -35.5 -96.5t-104.5 -9.5v68q37 -13 50 0t13 41v597h77v-600z" />
    <glyph glyph-name="k" unicode="k" horiz-adv-x="279" 
d="M172 321l92 -321h-79l-83 311v-311h-77v737h77v-398l85 232h79z" />
    <glyph glyph-name="l" unicode="l" horiz-adv-x="127" 
d="M25 0v737h77v-737h-77z" />
    <glyph glyph-name="m" unicode="m" horiz-adv-x="409" 
d="M307 0v477q0 15 -8 28t-24 13q-15 0 -23.5 -13t-8.5 -28v-477h-77v477q0 15 -8 28t-24 13q-15 0 -23.5 -13t-8.5 -28v-477h-77v571h71v-37q31 38 57.5 43.5t46.5 -4.5q23 -11 43 -39q18 29 42.5 39t46.5 4t37 -26.5t15 -53.5v-497h-77z" />
    <glyph glyph-name="n" unicode="n" horiz-adv-x="289" 
d="M187 0v477q0 17 -11 28.5t-28 12.5q-18 1 -32 -11t-14 -30v-477h-77v571h71v-37q18 29 46.5 39t55.5 4t46.5 -26.5t19.5 -53.5v-497h-77z" />
    <glyph glyph-name="o" unicode="o" horiz-adv-x="289" 
d="M264 98q0 -34 -10 -55t-26.5 -32.5t-38 -15.5t-44.5 -4q-24 0 -45.5 4t-38 15.5t-26.5 32.5t-10 55v375q0 34 10 54.5t26.5 32t38 15.5t45.5 4q22 0 43.5 -4t38.5 -15.5t27 -32t10 -54.5v-375zM187 469q0 29 -11.5 39.5t-30.5 10.5q-20 0 -31.5 -10.5t-11.5 -39.5v-367
q0 -28 11.5 -39t31.5 -11q19 0 30.5 10.5t11.5 39.5v367z" />
    <glyph glyph-name="p" unicode="p" horiz-adv-x="289" 
d="M264 74q0 -22 -11 -38t-27 -25.5t-36 -12.5t-38 0.5t-32 13t-18 25.5v-176h-77v710h71v-37q18 29 46.5 39t55.5 4t46.5 -26.5t19.5 -53.5v-423zM187 477q0 17 -11 28.5t-28 12.5q-18 1 -32 -10t-14 -31v-383q0 -18 14 -30.5t32 -10.5q17 2 28 13t11 28v383z" />
    <glyph glyph-name="q" unicode="q" horiz-adv-x="289" 
d="M187 -139v176q-5 -16 -18.5 -25.5t-31.5 -13t-38 -0.5t-36 12.5t-27 25.5t-11 38v423q0 33 19.5 53.5t46.5 26.5t55.5 -4t46.5 -39v37h71v-710h-77zM187 477q0 20 -14 31t-32 10q-17 -1 -28 -12.5t-11 -28.5v-383q0 -17 11 -28t28 -13q18 -2 32 10.5t14 30.5v383z" />
    <glyph glyph-name="r" unicode="r" horiz-adv-x="199" 
d="M187 504q-25 0 -43 -4q-16 -5 -29 -15t-13 -33v-452h-77v571h77v-39q8 20 22 29t28 11q17 3 35 -1v-67v0z" />
    <glyph glyph-name="s" unicode="s" horiz-adv-x="268" 
d="M243 98q0 -34 -8.5 -55t-23.5 -32.5t-35 -15.5t-42 -4t-42 4t-35 15.5t-23.5 32.5t-8.5 55v89h77v-85q0 -28 7.5 -39t24.5 -11t24.5 10.5t7.5 39.5v63q0 20 -8 31.5t-22 29.5l-86 108q-16 20 -20.5 36t-4.5 39v64q0 34 8.5 54.5t23.5 32t34.5 15.5t42.5 4q22 0 42 -4
t35 -15.5t23.5 -32t8.5 -54.5v-79h-77v75q0 29 -7.5 39.5t-24.5 10.5t-24.5 -10.5t-7.5 -39.5v-60q0 -22 10.5 -36.5t20.5 -25.5l85 -104q17 -21 21 -38.5t4 -37.5v-69v0z" />
    <glyph glyph-name="t" unicode="t" horiz-adv-x="185" 
d="M131 511v-418q0 -28 12.5 -34.5t31.5 -6.5v-61q-16 -1 -37 1.5t-39.5 13t-31.5 30t-13 53.5v422h-48v60h48v77l77 32v-109h48v-60h-48z" />
    <glyph glyph-name="u" unicode="u" horiz-adv-x="289" 
d="M264 98q0 -34 -10 -55t-26.5 -32.5t-38 -15.5t-44.5 -4q-24 0 -45.5 4t-38 15.5t-26.5 32.5t-10 55v473h77v-469q0 -28 11.5 -39t31.5 -11q19 0 30.5 10.5t11.5 39.5v469h77v-473v0z" />
    <glyph glyph-name="v" unicode="v" horiz-adv-x="258" 
d="M181 0h-116l-46 571h71l35 -479l44 479h70z" />
    <glyph glyph-name="w" unicode="w" horiz-adv-x="403" 
d="M341 0h-113l-26 500l-36 -500h-108l-41 571h70l27 -479l36 479h103l27 -479l36 479h70z" />
    <glyph glyph-name="x" unicode="x" horiz-adv-x="277" 
d="M181 0l-42 154l-43 -154h-77l83 286l-83 285h77l43 -154l42 154h77l-83 -286l83 -285h-77z" />
    <glyph glyph-name="y" unicode="y" horiz-adv-x="277" 
d="M175 -139h-77l13 139l-92 571h69l57 -400l44 400h69z" />
    <glyph glyph-name="z" unicode="z" horiz-adv-x="289" 
d="M25 0l150 504h-150v67h239l-151 -504h151v-67h-239z" />
    <glyph glyph-name="braceleft" unicode="{" horiz-adv-x="137" 
d="M116 -83l-8 -0.5t-17.5 -0.5t-17.5 0.5l-8 0.5q-17 80 -29.5 145t-19 122t-7 110t5.5 109.5t18.5 120t31.5 140.5h25h26q-19 -87 -31 -152.5t-18.5 -120.5t-6 -104t6.5 -103t18.5 -118t30.5 -149z" />
    <glyph glyph-name="bar" unicode="|" horiz-adv-x="202" 
d="M73 -104v738h56v-738h-56z" />
    <glyph glyph-name="braceright" unicode="}" horiz-adv-x="137" 
d="M70 -83l-8 -0.5t-17.5 -0.5t-17.5 0.5l-8 0.5q18 85 30.5 149t18.5 118t6.5 103t-6 104t-18.5 120.5t-31 152.5h25h26q19 -77 31.5 -140.5t18 -120t5 -109.5t-7 -110t-18.5 -122t-29 -145z" />
    <glyph glyph-name="asciitilde" unicode="~" horiz-adv-x="431" 
d="M271 228l-112 63l-112 -63v52l112 63l112 -63l112 63v-52z" />
    <glyph glyph-name="uni00A0" unicode="&#xa0;" horiz-adv-x="250" 
 />
    <glyph glyph-name="cent" unicode="&#xa2;" horiz-adv-x="270" 
d="M223 221q0 -46 -19 -63.5t-48 -20.5v-67h-41v67q-28 3 -47 20.5t-19 63.5v300q0 46 18.5 63.5t47.5 20.5v67h41v-67q14 -2 26.5 -6.5t21.5 -14t14 -25t5 -38.5v-63h-61v60q0 23 -6 31.5t-20 8.5t-20 -8.5t-6 -31.5v-293q0 -23 6 -31.5t20 -8.5t20 8.5t6 31.5v34h61v-38v0
z" />
    <glyph glyph-name="sterling" unicode="&#xa3;" horiz-adv-x="411" 
d="M382 72q-13 -33 -36 -56.5t-61 -23.5q-23 0 -43 7t-39 16q-9 5 -18 9l-18 8q-18 8 -35 8q-16 0 -25 -10t-14 -21l-63 25q3 15 10.5 28.5t19 23.5t25 15.5t28.5 4.5l20 -1q24 40 24 86q0 34 -16.5 79.5t-34.5 90.5h-89v60h64q-2 6 -4 11.5t-4 10.5q-11 29 -17 61t-6 64
q0 87 46 138.5t134 51.5q66 0 104 -36t43 -99l-62 -30q0 19 -4.5 36.5t-14.5 31.5t-26.5 22.5t-40.5 8.5q-48 0 -73.5 -30t-25.5 -75q0 -34 7.5 -70.5t18.5 -69.5q2 -6 4.5 -12.5t5.5 -13.5h157v-60h-135q14 -38 24 -76t10 -72q0 -30 -6 -61t-22 -62q13 -6 22.5 -11
t18.5 -10q18 -9 39 -9q17 0 26.5 11.5t14.5 22.5l67 -22v0z" />
    <glyph glyph-name="yen" unicode="&#xa5;" horiz-adv-x="340" 
d="M236 436h87v-62h-104l-12 -41v-17h116v-62h-116v-254h-74v254h-116v62h116v17l-12 41h-104v62h86l-89 311h77l78 -302l78 302h77z" />
    <glyph glyph-name="copyright" unicode="&#xa9;" horiz-adv-x="641" 
d="M605 285q0 -59 -22.5 -111t-61 -90.5t-90.5 -61t-111 -22.5t-111 22.5t-90.5 61t-61 90.5t-22.5 111t22.5 111t61 90.5t90.5 61t111 22.5t111 -22.5t90.5 -61t61 -90.5t22.5 -111zM551 285q0 48 -18 90t-49.5 73.5t-73.5 49.5t-90 18t-90 -18t-73.5 -49.5t-49.5 -73.5
t-18 -90t18 -90t49.5 -73.5t73.5 -49.5t90 -18t90 18t73.5 49.5t49.5 73.5t18 90zM405 171q0 -21 -7.5 -34.5t-19.5 -21t-26.5 -10.5t-27.5 -3q-14 0 -28.5 3t-26.5 10.5t-19.5 21t-7.5 34.5v225q0 21 7.5 34t19.5 20.5t26.5 10.5t28.5 3q13 0 27.5 -2.5t26.5 -10t19.5 -21
t7.5 -34.5v-51h-52v48q0 16 -10 22.5t-19 6.5q-10 0 -20 -6.5t-10 -22.5v-220q0 -16 10 -22.5t20 -6.5q9 0 19 7t10 22v29h52v-31z" />
    <glyph glyph-name="guillemotleft" unicode="&#xab;" horiz-adv-x="423" 
d="M322 122l-165 248l165 247h68l-130 -247l130 -248h-68zM198 122l-165 248l165 247h68l-130 -247l130 -248h-68z" />
    <glyph glyph-name="registered" unicode="&#xae;" horiz-adv-x="641" 
d="M605 285q0 -59 -22.5 -111t-61 -90.5t-90.5 -61t-111 -22.5t-111 22.5t-90.5 61t-61 90.5t-22.5 111t22.5 111t61 90.5t90.5 61t111 22.5t111 -22.5t90.5 -61t61 -90.5t22.5 -111zM551 285q0 48 -18 90t-49.5 73.5t-73.5 49.5t-90 18t-90 -18t-73.5 -49.5t-49.5 -73.5
t-18 -90t18 -90t49.5 -73.5t73.5 -49.5t90 -18t90 18t73.5 49.5t49.5 73.5t18 90zM340 113v137q0 11 -2.5 16t-15.5 5h-7v-158h-52v350l59 1q41 1 55 -16t14 -47v-60q0 -22 -2.5 -33.5t-10.5 -17.5q6 -6 9.5 -17t3.5 -31v-129h-51zM340 402q0 11 -3.5 15t-14.5 4h-7v-108h7
q13 0 15.5 7.5t2.5 18.5v63z" />
    <glyph glyph-name="guillemotright" unicode="&#xbb;" horiz-adv-x="423" 
d="M225 122h-68l130 248l-130 247h68l165 -247zM102 122h-69l130 248l-130 247h69l164 -247z" />
    <glyph glyph-name="onequarter" unicode="&#xbc;" horiz-adv-x="385" 
d="M55 369v314q-8 -11 -18.5 -19.5t-20.5 -10.5v42q23 14 40 52h45v-378h-46zM133 0h-50l139 747h50zM340 71v-71h-46v71h-93v44l76 263h63v-268h28v-39h-28zM294 290l-47 -180h46z" />
    <glyph glyph-name="onehalf" unicode="&#xbd;" horiz-adv-x="385" 
d="M55 369v314q-8 -11 -18.5 -19.5t-20.5 -10.5v42q23 14 40 52h45v-378h-46zM124 0h-50l139 747h50zM224 0v41l82 181l9 18q6 19 5 38.5t0 39.5q0 12 -7 19t-18 7t-18 -7t-7 -19v-36h-46v34q0 37 21.5 51.5t49.5 14.5q12 0 24.5 -3.5t23 -11t17 -20t6.5 -30.5v-63
q0 -7 -2 -15q-1 -4 -1 -7q-4 -11 -6 -15t-4 -6l-76 -169h93v-42h-146z" />
    <glyph glyph-name="threequarters" unicode="&#xbe;" horiz-adv-x="385" 
d="M148 431q0 -34 -20.5 -46.5t-46.5 -12.5t-46.5 12.5t-20.5 46.5v29h38v-30q0 -14 8.5 -21t20.5 -7q11 0 20 7t9 21v89q-1 15 -8 22t-16 9.5t-16.5 1.5t-10.5 -1v31h12t16.5 3t14.5 10t8 19v76q0 14 -8.5 22t-20.5 8t-20.5 -8t-8.5 -22v-31h-38v30q0 34 21 47.5t48 13.5
q11 0 22.5 -3t20.5 -10.5t15 -19t6 -28.5q1 0 1 -11.5v-25.5q0 -16 -1 -36q1 -14 -4 -23.5t-12 -15.5q-8 -7 -18 -11q10 -4 18 -10q7 -5 12 -15t4 -25zM151 0h-51l139 747h51zM341 71v-71h-47v71h-92v44l75 263h63v-268h29v-39h-28zM294 290l-47 -180h47v180z" />
    <glyph glyph-name="multiply" unicode="&#xd7;" horiz-adv-x="477" 
d="M384 88l-146 145l-145 -145l-50 49l145 146l-145 145l50 50l145 -145l146 145l50 -50l-146 -145l146 -146z" />
    <glyph glyph-name="divide" unicode="&#xf7;" horiz-adv-x="498" 
d="M252 372q-23 0 -34 14t-11 30.5t11 30.5t34 14q22 0 33 -14t11 -30.5t-11 -30.5t-33 -14zM29 275v58h440v-58h-440zM252 146q-23 0 -34 14t-11 31t11 31t34 14q22 0 33 -14t11 -31t-11 -31t-33 -14z" />
    <glyph glyph-name="kokaithai" unicode="&#xe01;" horiz-adv-x="289" 
d="M187 0v465q0 29 -9.5 39.5t-32.5 10.5h-43v-515h-77v573l12.5 0.5t30.5 0.5t38.5 0.5t38.5 0.5q22 0 43.5 -4t38.5 -15.5t27 -32t10 -54.5v-469h-77z" />
    <glyph glyph-name="khokhaithai" unicode="&#xe02;" horiz-adv-x="289" 
d="M264 98q0 -34 -10 -55t-26.5 -32.5t-38 -15.5t-44.5 -4q-24 0 -45.5 4t-38 15.5t-26.5 32.5t-10 55v237q0 42 11.5 64.5t25.5 37t27.5 25.5t16.5 29q0 17 -8 23q-7 5 -24 1.5t-49 -26.5v62q36 24 61.5 26.5t42.5 -4.5q19 -8 31 -26q20 -32 13.5 -53t-22.5 -40.5
t-32.5 -42.5t-16.5 -58v-251q0 -28 11.5 -39t31.5 -11q19 0 30.5 10.5t11.5 39.5v470h77v-474v0z" />
    <glyph glyph-name="khokhuatthai" unicode="&#xe03;" horiz-adv-x="307" 
d="M282 98q0 -34 -10 -55t-26.5 -32.5t-38 -15.5t-44.5 -4t-44.5 4t-38 15.5t-26.5 32.5t-10 55v357q0 8 3 16t7 14q4 7 11 14q-19 -1 -33.5 2.5t-25.5 8.5q-12 5 -22 13l33 56q20 -15 38 -17t31 2t20.5 9.5l7.5 5.5l29 -66q-17 -12 -20 -27t-2 -27v-357q0 -28 11.5 -39
t30.5 -11q20 0 31.5 10.5t11.5 39.5v469h76v-473v0z" />
    <glyph glyph-name="khokhwaithai" unicode="&#xe04;" horiz-adv-x="289" 
d="M187 0v469q0 29 -11.5 39.5t-30.5 10.5q-20 0 -31.5 -10.5t-11.5 -39.5v-137h54v-62h-54v-270h-77v473q0 34 10 54.5t26.5 32t38 15.5t45.5 4q22 0 43.5 -4t38.5 -15.5t27 -32t10 -54.5v-473h-77z" />
    <glyph glyph-name="khokhonthai" unicode="&#xe05;" horiz-adv-x="289" 
d="M187 0v511l-42 -21l-43 21v-179h54v-62h-54v-270h-77v477q0 35 12 55.5t26 31.5q17 12 39 16l43 -22l42 22q21 -4 39 -16q14 -11 26.5 -31.5t11.5 -55.5v-477h-77z" />
    <glyph glyph-name="khorakhangthai" unicode="&#xe06;" horiz-adv-x="307" 
d="M282 74q0 -33 -19.5 -54t-46.5 -27t-55.5 4.5t-46.5 39.5v-37h-69v455q-1 8 2.5 16t7.5 14q4 7 10 14q-19 -1 -33.5 2.5t-25.5 8.5q-12 5 -22 13l33 56q20 -15 38 -17t31 2t20.5 9.5l7.5 5.5l29 -66q-20 -11 -21 -26.5t-1 -27.5v-365q0 -18 14 -30t32 -11q17 0 28 12
t11 29v477h76v-497v0z" />
    <glyph glyph-name="ngonguthai" unicode="&#xe07;" horiz-adv-x="276" 
d="M251 78q0 -23 -8 -41q-7 -15 -22 -27t-43 -10h-64l-101 575h72l90 -508v410q0 27 -17 37.5t-37 5.5v49q15 11 37 13.5t42.5 -5t35.5 -26.5t15 -50v-423v0z" />
    <glyph glyph-name="chochanthai" unicode="&#xe08;" horiz-adv-x="276" 
d="M175 0v270h-62v62h62v137q0 29 -11.5 39.5t-31.5 10.5t-31.5 -10.5t-11.5 -39.5v-75h-76v79q0 34 10 54.5t26.5 32t38 15.5t44.5 4q22 0 43.5 -4t38.5 -15.5t27 -32t10 -54.5v-473h-76z" />
    <glyph glyph-name="chochingthai" unicode="&#xe09;" horiz-adv-x="289" 
d="M193 0v37q-18 -29 -46 -39.5t-54 -4.5t-45 27t-19 54v258h77v-238q0 -17 10 -28t27 -13q18 -2 31 10.5t13 30.5v380q0 29 -11.5 39.5t-30.5 10.5q-20 0 -31.5 -10.5t-11.5 -39.5v-50h-73v54q0 34 9.5 54.5t25.5 32t37 15.5t44 4q22 0 43.5 -4t38.5 -15.5t27 -32t10 -54.5
v-478h-71z" />
    <glyph glyph-name="chochangthai" unicode="&#xe0a;" horiz-adv-x="289" 
d="M264 98q0 -34 -10 -55t-26.5 -32.5t-38 -15.5t-44.5 -4q-24 0 -45.5 4t-38 15.5t-26.5 32.5t-10 55v10v26v36.5v41.5v113q-4 36 7.5 59.5t27 40.5t29.5 31.5t17 33.5q0 17 -8 23q-7 5 -24 1.5t-49 -26.5v62q36 24 61.5 26.5t42.5 -4.5q19 -8 31 -26q13 -24 12.5 -42
t-7.5 -33t-19 -28.5t-23 -30t-17.5 -37t-3.5 -48.5v-225q0 -28 11.5 -39t31.5 -11q19 0 30.5 10.5t11.5 39.5v222q0 19 -4.5 29t-10.5 14t-12.5 4.5t-10.5 0.5v52q13 1 25.5 9t12.5 37v138h77v-138q2 -27 -4 -41.5t-14 -21.5q-9 -8 -21 -10q12 -5 21 -15q8 -8 14 -22.5
t4 -35.5v-226v0z" />
    <glyph glyph-name="sosothai" unicode="&#xe0b;" horiz-adv-x="299" 
d="M274 98q0 -34 -10 -55t-26.5 -32.5t-38 -15.5t-44.5 -4t-44.5 4t-38 15.5t-26.5 32.5t-10 55v349q0 13 4.5 22.5t9.5 16.5q6 8 15 13q-19 -1 -33.5 2.5t-25.5 8.5q-12 5 -22 13l33 56q20 -15 38 -17t31 2t20.5 9.5l7.5 5.5l29 -66q-22 -13 -27 -32t-4 -30v-349
q0 -28 11.5 -39t31.5 -11q19 0 30.5 10.5t11.5 39.5v251q0 18 -4.5 28t-10.5 14t-12.5 5t-10.5 1v52q4 -1 10.5 0t12.5 5.5t10.5 14t4.5 26.5v109h77v-109q2 -27 -3.5 -41.5t-13.5 -21.5q-9 -8 -21 -10q12 -5 21 -15q8 -8 13.5 -22.5t3.5 -35.5v-255v0z" />
    <glyph glyph-name="chochoethai" unicode="&#xe0c;" horiz-adv-x="451" 
d="M426 74q0 -33 -19.5 -54t-46.5 -27t-55.5 4.5t-46.5 39.5v-38l-71 1v465q0 29 -9.5 39.5t-32.5 10.5h-43v-515h-77v573l12.5 0.5t30.5 0.5t38.5 0.5t38.5 0.5q22 0 43.5 -4t38.5 -15.5t27 -32t10 -54.5v-375q0 -18 14 -30t32 -11q17 0 28 12t11 29v477h77v-497v0z" />
    <glyph glyph-name="yoyingthai" unicode="&#xe0d;" horiz-adv-x="451" 
d="M426 0q0 -39 -16.5 -60t-37 -30.5t-37.5 -11.5l-17 -2h-131v62h131q10 1 19 5q8 4 13.5 12t5.5 25v37q-18 -29 -46.5 -39.5t-55.5 -4.5t-46.5 27t-19.5 54v391q0 29 -9.5 39.5t-32.5 10.5h-43v-515h-78v573l12.5 0.5t30.5 0.5t39 0.5t39 0.5q22 0 43.5 -4t38.5 -15.5
t27 -32t10 -54.5v-375q0 -17 11 -28t28 -13q18 -2 32 10.5t14 30.5v477h76v-571v0z" />
    <glyph glyph-name="dochadathai" unicode="&#xe0e;" horiz-adv-x="289" 
d="M187 -135l-81 44l-81 -44v58l81 44l81 -44v542q0 29 -9.5 39.5t-32.5 10.5h-43v-515h-77v573l12.5 0.5t30.5 0.5t38.5 0.5t38.5 0.5q22 0 43.5 -4t38.5 -15.5t27 -32t10 -54.5v-604h-77z" />
    <glyph glyph-name="topatakthai" unicode="&#xe0f;" horiz-adv-x="289" 
d="M187 -135l-54 48l-54 -50l-54 48v60l54 -48l54 48l54 -48v542q0 29 -9.5 39.5t-32.5 10.5h-43v-515h-77v573l12.5 0.5t30.5 0.5t38.5 0.5t38.5 0.5q22 0 43.5 -4t38.5 -15.5t27 -32t10 -54.5v-604h-77z" />
    <glyph glyph-name="thothanthai" unicode="&#xe10;" horiz-adv-x="280" 
d="M179 -1v270h-62v62h62v137q0 29 -11.5 39.5t-31.5 10.5q-19 0 -30 -10.5t-12 -39.5l-1 -74h-76v79q0 67 42.5 89.5t119.5 12.5v32h76v-608h-76zM179 -135l-54 48l-54 -50l-54 48v60l54 -48l54 48l54 -48v46h76v-104h-76z" />
    <glyph glyph-name="thonangmonthothai" unicode="&#xe11;" horiz-adv-x="297" 
d="M195 0v477q0 17 -11.5 28.5t-28.5 12.5q-18 1 -31.5 -11.5t-13.5 -29.5v-477h-77v451q0 17 3 28t8 19q5 9 12 14q-11 -7 -24 -5.5t-24 6.5q-13 5 -27 13l25 53q20 -15 38 -17t32 2q16 4 28 15q3 -8 7 -13q2 -5 4.5 -9t2.5 -3q16 16 42 22t51 0t43 -25t18 -54v-497h-77z
" />
    <glyph glyph-name="thophuthaothai" unicode="&#xe12;" horiz-adv-x="451" 
d="M426 74q0 -33 -19.5 -54t-46.5 -27t-55.5 4.5t-46.5 39.5v-38l-71 1v511l-42 -21l-43 21v-412q0 -28 17 -38.5t37 -5.5v-49q-15 -11 -37.5 -13.5t-43 5t-35.5 26.5t-15 50v403q0 35 12 55.5t26 31.5q17 12 39 16l43 -22l42 22q21 -4 39 -16q14 -11 26.5 -31.5t11.5 -55.5
v-383q0 -18 14 -30t32 -11q17 0 28 12t11 29v477h77v-497v0z" />
    <glyph glyph-name="nonenthai" unicode="&#xe13;" horiz-adv-x="451" 
d="M355 0v37q-18 -29 -46.5 -39.5t-55.5 -4.5t-46.5 27t-19.5 54v391q0 29 -9.5 39.5t-32.5 10.5h-43v-515h-77v573l12.5 0.5t30.5 0.5t38.5 0.5t38.5 0.5q22 0 43.5 -4t38.5 -15.5t27 -32t10 -54.5v-375q0 -17 10.5 -29t27.5 -12q18 -1 32.5 11t14.5 30v477h77v-571h-71z
" />
    <glyph glyph-name="dodekthai" unicode="&#xe14;" horiz-adv-x="289" 
d="M187 -1v474q0 29 -11.5 39.5t-30.5 10.5q-20 0 -31.5 -10.5t-11.5 -39.5v-375q0 -28 17 -38.5t37 -5.5v-49q-15 -11 -37.5 -13.5t-43 5t-35.5 26.5t-15 50v404q0 34 10 55t26.5 32t38 15t45.5 4q22 0 43.5 -4t38.5 -15t27 -32t10 -55v-478h-77z" />
    <glyph glyph-name="totaothai" unicode="&#xe15;" horiz-adv-x="289" 
d="M187 -1v511l-42 -21l-43 21v-412q0 -28 17 -38.5t37 -5.5v-49q-15 -11 -37.5 -13.5t-43 5t-35.5 26.5t-15 50v403q0 35 12 55.5t26 31.5q17 12 39 16l43 -22l42 22q21 -4 39 -16q14 -11 26.5 -31.5t11.5 -55.5v-477h-77z" />
    <glyph glyph-name="thothungthai" unicode="&#xe16;" horiz-adv-x="289" 
d="M187 0v465q0 29 -9.5 39.5t-32.5 10.5h-43v-455h43v-60h-120v573l12.5 0.5t30.5 0.5t38.5 0.5t38.5 0.5q22 0 43.5 -4t38.5 -15.5t27 -32t10 -54.5v-469h-77z" />
    <glyph glyph-name="thothahanthai" unicode="&#xe17;" horiz-adv-x="289" 
d="M187 0v477q0 17 -11 28.5t-28 12.5q-18 1 -32 -11t-14 -30v-477h-77v571h71v-37q18 29 46.5 39t55.5 4t46.5 -26.5t19.5 -53.5v-497h-77z" />
    <glyph glyph-name="thothongthai" unicode="&#xe18;" horiz-adv-x="289" 
d="M264 98q0 -34 -10 -55t-26.5 -32.5t-38 -15.5t-44.5 -4q-24 0 -45.5 4t-38 15.5t-26.5 32.5t-10 55v243h77v-239q0 -28 11.5 -39t31.5 -11q19 0 30.5 10.5t11.5 39.5v292h-162v74q0 34 10 54.5t27 32t38 15.5t44 4h38.5t38.5 -0.5t30.5 -1l12.5 -0.5v-60h-116
q-19 0 -29 -8t-14.5 -18.5t-4.5 -20t2 -12.5h162v-355v0z" />
    <glyph glyph-name="nonuthai" unicode="&#xe19;" horiz-adv-x="289" 
d="M193 0v37q-18 -29 -46.5 -39.5t-55.5 -4.5t-46.5 27t-19.5 54v497h77v-477q0 -17 11 -29t28 -12q18 -1 32 11t14 30v477h77v-571h-71z" />
    <glyph glyph-name="bobaimaithai" unicode="&#xe1a;" horiz-adv-x="289" 
d="M264 98q0 -34 -10 -55t-26.5 -32.5t-38 -15.5t-44.5 -4q-24 0 -45.5 4t-38 15.5t-26.5 32.5t-10 55v473h77v-469q0 -28 11.5 -39t31.5 -11q19 0 30.5 10.5t11.5 39.5v469h77v-473v0z" />
    <glyph glyph-name="poplathai" unicode="&#xe1b;" horiz-adv-x="289" 
d="M264 98q0 -34 -10 -55t-26.5 -32.5t-38 -15.5t-44.5 -4q-24 0 -45.5 4t-38 15.5t-26.5 32.5t-10 55v473h77v-469q0 -28 11.5 -39t31.5 -11q19 0 30.5 10.5t11.5 39.5v614h77v-618v0z" />
    <glyph glyph-name="phophungthai" unicode="&#xe1c;" horiz-adv-x="403" 
d="M378 98q0 -34 -10 -56t-26 -34.5t-36.5 -16t-42.5 -0.5q-23 3 -35.5 9.5t-19.5 13.5q-8 8 -10 17l-2.5 -5t-9.5 -11.5t-19 -13t-33 -10.5q-22 -4 -41.5 -0.5t-34.5 16.5t-24 35t-9 56v369q0 37 8.5 59.5t25.5 34t42 14t59 0.5v-58q-16 1 -27 1t-18 -4.5t-10 -15t-3 -31.5
v-369q0 -28 7.5 -37t24.5 -9q16 0 21 10.5t5 35.5v274h77v-274q0 -28 7.5 -37t24.5 -9t24.5 8.5t7.5 37.5v473h77v-473v0z" />
    <glyph glyph-name="fofathai" unicode="&#xe1d;" horiz-adv-x="403" 
d="M378 98q0 -34 -9 -56t-24 -35t-35 -16.5t-41 0.5q-22 4 -35.5 13.5t-21.5 20.5q-10 12 -14 27l-2.5 -8t-9.5 -18.5t-19 -20.5t-33 -14q-22 -4 -41.5 -0.5t-34.5 16.5t-24 35t-9 56v373q0 39 9 60.5t26.5 31.5t42.5 11.5t57 0.5v-58q-13 -1 -24 -1t-18.5 -4t-11.5 -14
t-4 -31v-369q0 -28 7.5 -37t24.5 -9q16 0 21 9t5 37v274h77v-274q0 -28 7.5 -37t24.5 -9t24.5 8.5t7.5 37.5v556h77v-556v0z" />
    <glyph glyph-name="phophanthai" unicode="&#xe1e;" horiz-adv-x="403" 
d="M336 0h-108l-26 500l-36 -500h-108l-41 571h70l27 -479l38 479h99l29 -479l36 479h70z" />
    <glyph glyph-name="fofanthai" unicode="&#xe1f;" horiz-adv-x="411" 
d="M335 0h-107l-26 500l-36 -500h-108l-41 571h70l27 -489l38 489h99l29 -489l42 551h69z" />
    <glyph glyph-name="phosamphaothai" unicode="&#xe20;" horiz-adv-x="305" 
d="M204 0l-1 465q0 29 -9.5 39.5t-32.5 10.5h-42v-515h-110v60h33v513l12 0.5t30 0.5t38.5 0.5t38.5 0.5q22 0 43.5 -4t38.5 -15.5t27 -32t10 -54.5v-469h-76z" />
    <glyph glyph-name="momathai" unicode="&#xe21;" horiz-adv-x="289" 
d="M264 74q0 -33 -19.5 -54t-46.5 -27t-55.5 4.5t-46.5 39.5v-37h-71v571h77v-477q0 -18 14 -30t32 -11q17 0 28 12t11 29v477h77v-497v0z" />
    <glyph glyph-name="yoyakthai" unicode="&#xe22;" horiz-adv-x="289" 
d="M264 0l-12.5 -0.5t-30.5 -1t-38.5 -0.5h-38.5q-23 0 -44 4t-38 15.5t-27 32t-10 54.5v94q-1 28 9.5 48t24.5 32q15 14 35 23q1 0 -10 4.5t-24 16t-24 30t-11 45.5v106q5 35 24 49.5t40 19.5q25 5 55 1v-55l-7 0.5t-15 -4t-14.5 -17.5t-6.5 -39v-67q0 -28 13.5 -40
t29.5 -16q18 -4 43 -1v237h77v-571zM187 270q-25 2 -43 -4q-16 -5 -29 -20t-13 -47v-91q0 -29 9.5 -39.5t32.5 -10.5h43v212z" />
    <glyph glyph-name="roruathai" unicode="&#xe23;" horiz-adv-x="268" 
d="M243 98q0 -34 -8.5 -55t-23.5 -32.5t-35 -15.5t-42 -4t-42 4t-35 15.5t-23.5 32.5t-8.5 55v89h77v-85q0 -28 7.5 -39t24.5 -11t24.5 10.5t7.5 39.5v63q0 20 -8 31.5t-22 29.5l-86 108q-16 20 -20.5 36t-4.5 39v64q0 34 8.5 54.5t23.5 32t34.5 15.5t42.5 4q22 0 42 -4
t35 -15.5t23.5 -32t8.5 -54.5v-79h-77v75q0 29 -7.5 39.5t-24.5 10.5t-24.5 -10.5t-7.5 -39.5v-60q0 -22 10.5 -36.5t20.5 -25.5l85 -104q17 -21 21 -38.5t4 -37.5v-69v0z" />
    <glyph glyph-name="ruthai" unicode="&#xe24;" horiz-adv-x="289" 
d="M187 -104v569q0 29 -9.5 39.5t-32.5 10.5h-43v-453h43v-62h-120v573l12.5 0.5t30.5 0.5t38.5 0.5t38.5 0.5q22 0 43.5 -4t38.5 -15.5t27 -32t10 -54.5v-573h-77z" />
    <glyph glyph-name="lolingthai" unicode="&#xe25;" horiz-adv-x="289" 
d="M187 -1v297q-26 1 -45 -3q-17 -4 -30.5 -14.5t-13.5 -33.5v-147q0 -28 19 -38.5t39 -5.5v-49q-15 -11 -38 -13.5t-44.5 5t-37 26.5t-15.5 50v169q0 47 27 79t79 32h60v120q0 29 -11.5 39.5t-30.5 10.5q-20 0 -31.5 -10.5t-11.5 -39.5v-49h-73v53q0 34 9.5 55t25.5 32
t37 15t44 4q22 0 43.5 -4t38.5 -15t27 -32t10 -55v-478h-77z" />
    <glyph glyph-name="luthai" unicode="&#xe26;" horiz-adv-x="305" 
d="M204 -104l-1 569q0 29 -9.5 39.5t-32.5 10.5h-42v-515h-110v60h33v513l12 0.5t30 0.5t38.5 0.5t38.5 0.5q22 0 43.5 -4t38.5 -15.5t27 -32t10 -54.5v-573h-76z" />
    <glyph glyph-name="wowaenthai" unicode="&#xe27;" horiz-adv-x="268" 
d="M243 98q0 -34 -8.5 -55t-23.5 -32.5t-35 -15.5t-42 -4t-42 4t-35 15.5t-23.5 32.5t-8.5 55v47h77v-43q0 -28 7.5 -39t24.5 -11t24.5 10.5t7.5 39.5v367q0 29 -7.5 39.5t-24.5 10.5t-24.5 -10.5t-7.5 -39.5v-75h-77v79q0 34 8.5 54.5t23.5 32t35 15.5t42 4t42 -4t35 -15.5
t23.5 -32t8.5 -54.5v-375v0z" />
    <glyph glyph-name="sosalathai" unicode="&#xe28;" horiz-adv-x="289" 
d="M187 0v486q0 16 -13.5 24.5t-28.5 8.5q-16 0 -29.5 -8.5t-13.5 -24.5v-154h54v-62h-54v-270h-77v494q0 26 16 44.5t40 28.5t52.5 12t53.5 -5v34h77v-608h-77z" />
    <glyph glyph-name="sorusithai" unicode="&#xe29;" horiz-adv-x="289" 
d="M264 270v-172q0 -34 -10 -55t-26.5 -32.5t-38 -15.5t-44.5 -4q-24 0 -45.5 4t-38 15.5t-26.5 32.5t-10 55v473h77v-469q0 -28 11.5 -39t31.5 -11q19 0 30.5 10.5t11.5 39.5v168h-44v62h44v239h77v-239h33v-62h-33z" />
    <glyph glyph-name="sosuathai" unicode="&#xe2a;" horiz-adv-x="289" 
d="M187 -2v298q-26 1 -45 -3q-17 -4 -30.5 -14.5t-13.5 -33.5v-147q0 -28 19 -38.5t39 -5.5v-49q-15 -11 -38 -13.5t-44.5 5t-37 26.5t-15.5 50v169q0 47 27 78.5t79 31.5h60v120q0 29 -11.5 39.5t-30.5 10.5q-20 0 -31.5 -10.5t-11.5 -39.5v-49h-73v53q0 69 41 91.5
t117 11.5v28h77v-608z" />
    <glyph glyph-name="hohipthai" unicode="&#xe2b;" horiz-adv-x="289" 
d="M138 511v60h120v-60h-120zM187 0v400q0 17 -11 29t-28 12q-18 1 -32 -11t-14 -30v-400h-77v571h71v-113q18 28 46.5 38.5t55.5 4.5t46.5 -27t19.5 -54v-420h-77z" />
    <glyph glyph-name="lochulathai" unicode="&#xe2c;" horiz-adv-x="403" 
d="M372 98q0 -36 -9 -58t-23.5 -34t-33.5 -15t-40 0q-23 4 -36.5 13.5t-20.5 20.5q-8 12 -11 27l-2.5 -8t-9.5 -18.5t-19 -20.5t-33 -14q-22 -4 -41.5 -0.5t-34.5 16.5t-24 35t-9 56v473h77v-473q0 -28 7.5 -37t24.5 -9q16 0 21 10t5 36v473h77v-473q0 -28 7.5 -37t21.5 -9
t21.5 7t7.5 39v345q1 17 -4 26.5t-12 14.5q-8 5 -18 6v52l6 0.5t12.5 4.5t11.5 13.5t4 28.5v30h77v-30q1 -28 -4.5 -42.5t-12.5 -21.5q-8 -8 -19 -9q12 -6 21 -16q8 -8 12.5 -22t2.5 -35v-345v0z" />
    <glyph glyph-name="oangthai" unicode="&#xe2d;" horiz-adv-x="289" 
d="M264 98q0 -34 -10 -55t-26.5 -32.5t-38 -15.5t-44.5 -4q-24 0 -45.5 4t-38 15.5t-26.5 32.5t-10 55v234h120v-62h-43v-168q0 -28 11.5 -39t31.5 -11q19 0 30.5 10.5t11.5 39.5v367q0 29 -11.5 39.5t-30.5 10.5q-20 0 -31.5 -10.5t-11.5 -39.5v-75h-77v79q0 34 10 54.5
t26.5 32t38 15.5t45.5 4q22 0 43.5 -4t38.5 -15.5t27 -32t10 -54.5v-375v0z" />
    <glyph glyph-name="honokhukthai" unicode="&#xe2e;" horiz-adv-x="289" 
d="M264 98q0 -34 -10 -55t-26.5 -32.5t-38 -15.5t-44.5 -4q-24 0 -45.5 4t-38 15.5t-26.5 32.5t-10 55v234h120v-62h-43v-168q0 -28 11.5 -39t31.5 -11q19 0 30.5 10.5t11.5 39.5v367q0 29 -11.5 39.5t-30.5 10.5q-20 0 -31.5 -10.5t-11.5 -39.5v-75h-77v79q0 68 42 91
t120 12v32h77v-510v0z" />
    <glyph glyph-name="paiyannoithai" unicode="&#xe2f;" horiz-adv-x="289" 
d="M193 0v512q-22 -30 -52.5 -37t-57.5 2.5t-44.5 34t-13.5 59.5h73q1 -12 6 -22q5 -8 13 -14.5t25 -6.5t26 6.5t14 14.5q4 10 5 22h77v-571h-71z" />
    <glyph glyph-name="saraathai" unicode="&#xe30;" horiz-adv-x="159" 
d="M64 388q-22 1 -34.5 12.5t-12.5 34.5v53h74v-37h52v-63h-79zM64 83q-22 1 -34.5 12.5t-12.5 34.5v53h74v-38h52v-62h-79z" />
    <glyph glyph-name="maihanakatthai" unicode="&#xe31;" 
d="M-108 623q-23 0 -36.5 5.5t-21.5 14t-10.5 19t-2.5 19.5v34h78q-1 -14 7.5 -24.5t21.5 -10.5h72v-57h-108z" />
    <glyph glyph-name="saraaathai" unicode="&#xe32;" horiz-adv-x="152" 
d="M50 0v490q1 10 -3 18q-4 7 -14.5 11t-32.5 2q-1 0 -0.5 8t0.5 19v27q48 8 73.5 -4.5t37.5 -29.5q14 -20 16 -49v-492h-77z" />
    <glyph glyph-name="saraamthai" unicode="&#xe33;" horiz-adv-x="152" 
d="M-1 666q0 -28 -17.5 -42t-39 -14t-39 14t-17.5 42t17.5 42t39 14t39 -14t17.5 -42zM50 0v490q1 10 -3 18q-4 7 -14.5 11t-32.5 2q-1 0 -0.5 8t0.5 19v27q48 8 73.5 -4.5t37.5 -29.5q14 -20 16 -49v-492h-77zM-36 666q0 11 -6.5 16.5t-15 5.5t-15 -5.5t-6.5 -16.5t6.5 -16
t15 -5t15 5t6.5 16z" />
    <glyph glyph-name="saraithai" unicode="&#xe34;" 
d="M-264 623v62h237v-62h-237z" />
    <glyph glyph-name="saraiithai" unicode="&#xe35;" 
d="M-262 623v62h179v31h58v-93h-237z" />
    <glyph glyph-name="sarauethai" unicode="&#xe36;" 
d="M-26 669q0 -16 -6 -25t-14.5 -13.5t-17 -6t-13.5 -1.5h-185v60h142q3 17 18.5 26t32.5 8t30 -12.5t13 -35.5zM-57 669q0 9 -5.5 13t-11.5 4t-11.5 -4t-5.5 -13t5.5 -13t11.5 -4t11.5 4t5.5 13z" />
    <glyph glyph-name="saraueethai" unicode="&#xe37;" 
d="M-262 623v62h108v31h52v-31h25v31h52v-93h-237z" />
    <glyph glyph-name="sarauthai" unicode="&#xe38;" 
d="M-96 -135v54h-43v50h114v-104h-71z" />
    <glyph glyph-name="sarauuthai" unicode="&#xe39;" 
d="M-25 -92q0 -13 -8.5 -21t-22 -13t-29 -7t-29.5 -2q-15 0 -30 1t-28 5.5t-22 13t-10 23.5l-1 10l-36 1v50h104v-40q0 -8 7 -11t15 -3t14.5 3t6.5 11v40h69v-61v0z" />
    <glyph glyph-name="phinthuthai" unicode="&#xe3a;" 
d="M-69 -119q-22 0 -33 14t-11 31t11 31t33 14t33.5 -14t11.5 -31t-11.5 -31t-33.5 -14z" />
    <glyph glyph-name="PUCR2005" unicode="&#xe3e;" 
 />
    <glyph glyph-name="bahtthai" unicode="&#xe3f;" horiz-adv-x="297" 
d="M272 118q0 -30 -9 -51t-23 -34.5t-32.5 -20t-37.5 -9.5v-74h-44v71h-101v747h101v69h44v-71q16 -3 34 -10.5t33 -21.5t25 -35.5t10 -52.5v-152q2 -36 -8 -55.5t-24 -29.5q-16 -11 -37 -14l11.5 -3t25 -13.5t24 -30.5t8.5 -54v-155zM195 627q0 27 -11 38.5t-14 12.5v-254
q8 4 14 10q12 12 11 35v158zM126 687h-22v-274h22v274zM195 279q0 13 -4 21.5t-9 13.5q-5 6 -12 10v-256q7 3 12 9q5 5 9 14.5t4 24.5v163zM126 335l-22 -1v-274h22v275z" />
    <glyph glyph-name="saraethai" unicode="&#xe40;" horiz-adv-x="127" 
d="M25 0v571h77v-571h-77z" />
    <glyph glyph-name="saraaethai" unicode="&#xe41;" horiz-adv-x="245" 
d="M143 0v571h77v-571h-77zM25 0v571h77v-571h-77z" />
    <glyph glyph-name="saraothai" unicode="&#xe42;" horiz-adv-x="131" 
d="M160 683q-22 2 -34 -2t-17 -11q-6 -8 -7 -18v-652h-77v655l1 7t5.5 18t13 23t23.5 21.5t37.5 13.5t54.5 -1v-54v0z" />
    <glyph glyph-name="saraaimaimuanthai" unicode="&#xe43;" horiz-adv-x="163" 
d="M62 0v650q3 14 -7.5 21.5t-24.5 -5.5l-30 38q15 23 39.5 31t47.5 2.5t38.5 -23.5t12.5 -46v-668h-76z" />
    <glyph glyph-name="saraaimaimalaithai" unicode="&#xe44;" horiz-adv-x="152" 
d="M50 0v652q1 10 -3 18q-4 7 -14.5 11t-32.5 2q-1 0 -0.5 8t0.5 19v27q48 7 74 -5t37.5 -29t13.5 -32.5l2 -15.5v-655h-77z" />
    <glyph glyph-name="lakkhangyaothai" unicode="&#xe45;" horiz-adv-x="177" 
d="M75 -103v594q1 10 -3 18q-4 7 -14.5 11t-32.5 2v54q48 8 73.5 -4.5t37.5 -29.5q14 -20 16 -49v-596h-77z" />
    <glyph glyph-name="maiyamokthai" unicode="&#xe46;" horiz-adv-x="388" 
d="M287 0v510l-43 -21l-42 21l-1 -66h-76q-5 49 6 76.5t27 40.5t30 15.5l14 2.5l42 -22l43 22q22 -4 39 -16q14 -11 26 -31.5t11 -55.5v-476h-76z" />
    <glyph glyph-name="maitaikhuthai" unicode="&#xe47;" 
d="M-141 737q-16 1 -24 -2t-11 -8.5t-2.5 -11.5t0.5 -9v-28l57 36l56 -36v-55l-56 39l-57 -37h-55v114q0 20 16 34t37 14h117v-50h-78z" />
    <glyph glyph-name="maiekthai" unicode="&#xe48;" 
d="M-87 733v81h62v-81h-62z" />
    <glyph glyph-name="maithothai" unicode="&#xe49;" 
d="M-112 733v42h-37v57h42q16 0 24.5 -7t11.5 -15t3 -16v-9h65v-52h-109z" />
    <glyph glyph-name="maitrithai" unicode="&#xe4a;" 
d="M-111 733v27l-34 -17l-35 17v-27h-61q-2 28 7.5 44.5t21.5 24.5q14 10 32 13l35 -17l34 17q10 0 20 -4q8 -4 17 -11.5t15 -23.5h34v-43h-86z" />
    <glyph glyph-name="maichattawathai" unicode="&#xe4b;" 
d="M-39 763v-30h-54v30h-31v45h31v29h54v-29h31v-45h-31z" />
    <glyph glyph-name="thanthakhatthai" unicode="&#xe4c;" 
d="M4 761q-13 0 -21.5 -10t-7.5 -25h-78v34q0 10 2.5 20t10 18.5t21 14t36.5 5.5h32q12 0 21.5 0.5t10.5 0.5v-58h-27z" />
    <glyph glyph-name="nikhahitthai" unicode="&#xe4d;" 
d="M-6 666q0 -28 -17.5 -42t-38.5 -14t-38.5 14t-17.5 42t17.5 42t38.5 14t38.5 -14t17.5 -42zM-40 666q0 11 -7 16.5t-15 5.5t-15 -5.5t-7 -16.5t7 -16t15 -5t15 5t7 16z" />
    <glyph glyph-name="yamakkanthai" unicode="&#xe4e;" 
d="M-20 704q-14 0 -23.5 -13.5t-10.5 -36.5q0 -3 1.5 -20.5t11.5 -31.5h-57q-9 14 -11 29.5t-2 16.5q0 22 7 38t15 27t14.5 16.5t5.5 5.5q-2 0 -8.5 4.5t-14 14.5t-13.5 25t-6 36q0 1 1 14.5t10 25.5h57q-8 -12 -9.5 -27.5t-1.5 -18.5q1 -23 10.5 -33t23.5 -10v-62v0z" />
    <glyph glyph-name="fongmanthai" unicode="&#xe4f;" horiz-adv-x="650" 
d="M610 285q0 -59 -22.5 -111t-61 -90.5t-90.5 -61t-111 -22.5t-111 22.5t-90.5 61t-61 90.5t-22.5 111t22.5 111t61 90.5t90.5 61t111 22.5t111 -22.5t90.5 -61t61 -90.5t22.5 -111zM553 285q0 47 -18 88.5t-49 72.5t-72.5 49t-88.5 18t-88.5 -18t-72.5 -49t-49 -72.5
t-18 -88.5t18 -88.5t49 -72.5t72.5 -49t88.5 -18t88.5 18t72.5 49t49 72.5t18 88.5zM496 285q0 -35 -13.5 -66.5t-36.5 -54.5t-54 -36.5t-67 -13.5q-35 0 -66.5 13.5t-54.5 36.5t-36.5 54.5t-13.5 66.5q0 36 13.5 67t36.5 54t54.5 36.5t66.5 13.5q36 0 67 -13.5t54 -36.5
t36.5 -54t13.5 -67zM453 285q0 27 -10 50t-27.5 40.5t-40.5 27.5t-50 10t-50 -10t-40.5 -27.5t-27.5 -40.5t-10 -50t10 -50t27.5 -40.5t40.5 -27.5t50 -10t50 10t40.5 27.5t27.5 40.5t10 50z" />
    <glyph glyph-name="zerothai" unicode="&#xe50;" horiz-adv-x="312" 
d="M266 96q0 -47 -32.5 -74t-78.5 -27q-45 0 -76.5 27t-31.5 74v277q0 47 31.5 74t76.5 27q46 0 78.5 -27t32.5 -74v-277zM196 377q0 17 -11.5 29t-28.5 12t-28.5 -11.5t-11.5 -28.5v-287q0 -17 11.5 -28.5t28.5 -11.5t28.5 12t11.5 29v285z" />
    <glyph glyph-name="onethai" unicode="&#xe51;" horiz-adv-x="312" 
d="M266 78q0 -32 -23 -55t-55 -23h-130v60h118q8 0 14 6.5t6 14.5v296q0 17 -11.5 29t-28.5 12t-28.5 -12t-11.5 -29v-155q0 -15 16 -15h23v-56h-37q-29 0 -50 21t-21 50v150q0 47 31.5 74.5t76.5 27.5q46 0 78.5 -27.5t32.5 -74.5v-294v0z" />
    <glyph glyph-name="twothai" unicode="&#xe52;" horiz-adv-x="409" 
d="M362 79q0 -32 -22.5 -55.5t-54.5 -23.5h-160q-32 0 -55 23.5t-23 55.5v492h70v-487q0 -11 7 -17.5t18 -6.5h126q11 0 18 6.5t7 17.5v332l-40 -23l-41 23v-194q0 -15 16 -15h24v-56h-35q-29 0 -50 21t-21 50v154q0 34 17 60.5t46 39.5l44 -25l43 25q29 -12 47.5 -39
t18.5 -61v-297v0z" />
    <glyph glyph-name="threethai" unicode="&#xe53;" horiz-adv-x="425" 
d="M307 0v374q0 27 -8.5 35t-22.5 8t-21 -8.5t-7 -34.5v-222h-70v222q0 23 -7 33t-22 10q-17 0 -23.5 -8.5t-6.5 -34.5v-276q0 -20 3 -30t9.5 -14t17 -4t25.5 1v-55q-32 -2 -56 0.5t-39.5 13.5t-23.5 32t-8 56v274q0 32 8.5 53t22.5 33t32.5 15t38.5 0q19 -3 31 -9.5t18 -13
t8.5 -11l2.5 -4.5q2 9 10 16q6 6 18.5 12t33.5 10q20 3 39.5 -0.5t34.5 -15t24.5 -32.5t9.5 -53v-372h-72z" />
    <glyph glyph-name="fourthai" unicode="&#xe54;" horiz-adv-x="380" 
d="M350 469q0 -28 -19.5 -47.5t-47.5 -19.5h-136q-13 0 -21.5 -8.5t-8.5 -21.5v-280q0 -14 9.5 -25t23.5 -11h33v162q0 35 8 56t23.5 31.5t39.5 12.5t56 1v-55q-15 1 -25.5 1t-17.5 -4t-10 -14.5t-3 -29.5v-158h63v-59h-161q-45 0 -77 23t-32 70v277q0 47 27 73.5t73 26.5
h118q16 0 16 15v86h69v-102v0z" />
    <glyph glyph-name="fivethai" unicode="&#xe55;" horiz-adv-x="380" 
d="M350 473q0 -28 -19.5 -47.5t-47.5 -19.5h-141q-11 0 -18 -7t-7 -18v-292q0 -14 9.5 -23.5t23.5 -9.5h33v162q0 35 8 56t23.5 31.5t39.5 12.5t56 1v-55q-15 1 -25.5 1t-17.5 -4t-10 -14.5t-3 -29.5v-158h63v-59h-161q-45 0 -77 21.5t-32 68.5v308q0 15 6 28t16.5 23
t23.5 16t28 6q0 33 23 56t57 23q33 0 56.5 -23.5t23.5 -56.5v101h69v-98zM231 473q0 12 -8.5 20.5t-20.5 8.5t-20.5 -8.5t-8.5 -20.5t8.5 -20.5t20.5 -8.5t20.5 8.5t8.5 20.5z" />
    <glyph glyph-name="sixthai" unicode="&#xe56;" horiz-adv-x="327" 
d="M283 94q0 -47 -33 -73t-82 -26q-24 0 -44.5 6.5t-36 19.5t-24.5 31t-9 42v34q0 35 7.5 56t22.5 32t38 13.5t55 0.5v-54q-15 1 -25.5 1t-17 -4.5t-9.5 -15t-3 -29.5v-36q0 -17 14 -28t32 -11q19 0 32.5 11t13.5 28v280q0 23 -15 34t-40 11q-26 0 -40.5 -11.5t-14.5 -43.5
h-69v209h69v-108q18 7 34 7h36q46 0 77.5 -27t31.5 -74v-275v0z" />
    <glyph glyph-name="seventhai" unicode="&#xe57;" horiz-adv-x="428" 
d="M378 82q0 -39 -27.5 -61.5t-66.5 -22.5l-94 2v415l-37 -22l-38 22v-344q0 -6 4.5 -10.5t11.5 -4.5h22v-58h-37q-29 0 -50.5 22t-21.5 51v305q0 34 18 60.5t47 39.5l44 -25l43 25q29 -12 47 -39t18 -61v-319h15t15.5 2t12.5 7t5 14v491h69v-489v0z" />
    <glyph glyph-name="eightthai" unicode="&#xe58;" horiz-adv-x="423" 
d="M385 470q0 -28 -20 -44t-49 -16h-183q-6 0 -11 -4.5t-5 -10.5v-300q0 -27 9 -35t23 -8t21 8.5t7 34.5v112h71v-112q0 -23 6.5 -33t21.5 -10q17 0 23.5 8.5t6.5 34.5v120q0 19 -3 29.5t-9 14.5t-16.5 4t-25.5 -1v55q31 2 55 -0.5t40 -13.5t24 -32t8 -56v-118
q0 -32 -8.5 -53t-22.5 -33t-32.5 -15t-39.5 0q-20 3 -31.5 9.5t-17.5 13t-8.5 11l-2.5 4.5q-3 -9 -10 -16q-6 -6 -18.5 -12.5t-32.5 -9.5q-21 -3 -40.5 0.5t-34.5 15t-24 32.5t-9 53v296q0 32 22.5 54t54.5 22h192v102h69v-101z" />
    <glyph glyph-name="ninethai" unicode="&#xe59;" horiz-adv-x="387" 
d="M365 0h-66l-102 378q-10 38 -42 38q-16 0 -27.5 -11t-11.5 -27v-279q0 -29 7 -38.5t26 -9.5q6 0 22 1v-55q-68 -3 -94 15q-30 22 -30 89v261q0 45 31.5 76.5t76.5 31.5q42 0 73 -30l29 29h39v102h67v-164h-78l-23 -23z" />
    <glyph glyph-name="angkhankhuthai" unicode="&#xe5a;" horiz-adv-x="419" 
d="M323 0v571h71v-571h-71zM193 0v512q-22 -30 -52.5 -37t-57.5 2.5t-44.5 34t-13.5 59.5h73q1 -12 6 -22q5 -8 13 -14.5t25 -6.5t26 6.5t14 14.5q4 10 5 22h77v-571h-71z" />
    <glyph glyph-name="khomutthai" unicode="&#xe5b;" horiz-adv-x="894" 
d="M589 197l-35 47l-95 -135l-101 143l-70 -149q-9 -20 -18 -38.5t-20.5 -32.5t-26.5 -23t-37 -9h-58q-21 0 -40 8t-33 22t-22 33t-8 40v255q0 21 8 40t22 33t33 22t40 8h18q21 0 40 -8t33 -22t22 -33t8 -40v-108h-65v110q0 15 -10.5 26.5t-25.5 11.5h-22q-15 0 -25.5 -11.5
t-10.5 -26.5v-259q0 -15 10.5 -26.5t25.5 -11.5h59q14 0 22 12.5t14 25.5l125 268l112 -162l97 140l62 -91h242v-59h-270z" />
    <glyph glyph-name="ZWSP" unicode="&#x200b;" 
 />
    <glyph glyph-name="endash" unicode="&#x2013;" horiz-adv-x="500" 
d="M50 275v58h400v-58h-400z" />
    <glyph glyph-name="emdash" unicode="&#x2014;" horiz-adv-x="1000" 
d="M50 229v48h900v-48h-900z" />
    <glyph glyph-name="quoteleft" unicode="&#x2018;" horiz-adv-x="163" 
d="M83 573l-73 114h74l50 -114h-51z" />
    <glyph glyph-name="quoteright" unicode="&#x2019;" horiz-adv-x="167" 
d="M82 573h-51l50 114h75z" />
    <glyph glyph-name="quotedblleft" unicode="&#x201c;" horiz-adv-x="256" 
d="M176 573l-74 114h75l50 -114h-51zM80 573l-74 114h75l50 -114h-51z" />
    <glyph glyph-name="quotedblright" unicode="&#x201d;" horiz-adv-x="262" 
d="M176 573h-51l50 114h75zM80 573h-51l50 114h75z" />
    <glyph glyph-name="bullet" unicode="&#x2022;" horiz-adv-x="357" 
d="M179 96q-56 0 -94 25.5t-57 64.5t-20 83.5t18 83.5t57 64.5t96 25.5q56 0 93.5 -25.5t56.5 -64.5t19 -83.5t-19 -83.5t-56.5 -64.5t-93.5 -25.5z" />
    <glyph glyph-name="Euro" unicode="&#x20ac;" horiz-adv-x="371" 
d="M346 110q0 -34 -11 -56.5t-29.5 -36.5t-42.5 -20t-50 -6q-25 0 -47.5 6t-39.5 20t-27 36.5t-10 56.5v174h-82v62h82v58h-82v62h82v167q0 34 10 57.5t26.5 38t39 21t48.5 6.5q22 0 46 -6.5t43 -21t31.5 -38t12.5 -57.5v-114h-76v116q0 29 -16.5 44.5t-40.5 15.5
q-23 0 -35 -15.5t-12 -44.5v-169h104v-62h-104v-58h104v-62h-104v-176q0 -28 12.5 -42t34.5 -14q23 0 40 13.5t17 42.5v108h76v-106v0z" />
    <glyph glyph-name="trademark" unicode="&#x2122;" horiz-adv-x="489" 
d="M405 298l1 390l-43 -390h-55l-42 390v-390h-45v448h70l45 -404l45 404h69v-448h-45zM121 704v-406h-47v406h-55v42h157v-42h-55z" />
    <glyph glyph-name="uni25CC" unicode="&#x25cc;" horiz-adv-x="670" 
d="M259 179l-48 -15l17 47q13 -19 31 -32zM312 413l23 45l22 -44q-11 1 -21 1q-12 0 -24 -2zM355 156l-20 -42l-21 42q11 -2 22 -2q10 0 19 2zM465 307l42 -22l-42 -19q2 9 2 19q0 11 -2 22zM208 264l-45 23l45 22q-2 -12 -2 -24q0 -11 2 -21zM231 363l-13 46l45 -16
q-19 -12 -32 -30zM440 205l12 -41l-41 13q17 12 29 28zM410 393l49 16l-17 -47q-13 18 -32 31z" />
    <glyph glyph-name="thothannobasethai" unicode="&#xf700;" horiz-adv-x="280" 
d="M179 0v269h-62v62h62v137q0 29 -11.5 39.5t-31.5 10.5q-19 0 -30.5 -10.5t-11.5 -39.5v-74h-77v79q0 67 42.5 89.5t119.5 12.5v32h76v-607h-76z" />
    <glyph glyph-name="saraileftthai" unicode="&#xf701;" 
d="M-264 623v62h145v-62h-145z" />
    <glyph glyph-name="saraiileftthai" unicode="&#xf702;" 
d="M-264 623v60h85v33h60v-93h-145z" />
    <glyph glyph-name="saraueleftthai" unicode="&#xf703;" 
d="M-108 674q0 -23 -14 -33t-25 -10h-120v59h75q3 13 16.5 20t28.5 6t27 -11t12 -31zM-139 673q0 6 -4 9.5t-8.5 3.5t-8.5 -3.5t-4 -9.5t4 -9.5t8.5 -3.5t8.5 3.5t4 9.5z" />
    <glyph glyph-name="saraueeleftthai" unicode="&#xf704;" 
d="M-264 623v60h54v33h35v-33h17v33h39v-93h-145z" />
    <glyph glyph-name="maieklowleftthai" unicode="&#xf705;" 
d="M-197 623v83h70v-83h-70z" />
    <glyph glyph-name="maitholowleftthai" unicode="&#xf706;" 
d="M-226 623v41h-38v57h25h25q17 0 24.5 -7.5t11.5 -15.5q4 -11 4 -23h55v-52h-107z" />
    <glyph glyph-name="maitrilowleftthai" unicode="&#xf707;" 
d="M-181 629v21l-27 -14l-28 14v-21h-49q-1 22 6.5 35t17.5 20q11 8 25 10l28 -14l27 14q8 1 16 -3q7 -3 14 -9.5t12 -18.5h27v-34h-69z" />
    <glyph glyph-name="maichattawalowleftthai" unicode="&#xf708;" 
d="M-153 635v-29h-54v29h-31v46h31v29h54v-29h31v-46h-31z" />
    <glyph glyph-name="thanthakhatlowleftthai" unicode="&#xf709;" 
d="M-164 658q-12 -2 -21 -11.5t-8 -23.5q0 -1 -12.5 -0.5t-26.5 0.5h-38v33q0 10 2.5 20.5t9.5 19t20.5 14t36.5 5.5h63v-57h-26z" />
    <glyph glyph-name="maieklowrightthai" unicode="&#xf70a;" 
d="M-96 623v83h71v-83h-71z" />
    <glyph glyph-name="maitholowrightthai" unicode="&#xf70b;" 
d="M-112 623v41h-37v57h25h25q17 0 25.5 -7.5t11.5 -15.5q4 -11 3 -23h56v-52h-109z" />
    <glyph glyph-name="maitrilowrightthai" unicode="&#xf70c;" 
d="M-111 623v26l-34 -17l-35 17v-26l-9.5 -0.5t-21 -0.5t-21 0.5l-9.5 0.5q-2 28 7.5 44t21.5 24q14 10 32 13l35 -17l34 17q10 0 20 -4q8 -4 17 -11.5t15 -23.5h34v-42h-86z" />
    <glyph glyph-name="maichattawalowrightthai" unicode="&#xf70d;" 
d="M-36 650v-27h-58v27h-30v50h30v26h58v-26h28v-50h-28z" />
    <glyph glyph-name="thanthakhatlowrightthai" unicode="&#xf70e;" 
d="M5 658q-13 -2 -21.5 -11.5t-7.5 -23.5q0 -1 -12.5 -0.5t-26.5 0.5h-39v33q0 10 2.5 20.5t10 19t21.5 14t37 5.5h62v-57h-26z" />
    <glyph glyph-name="yoyingnobasethai" unicode="&#xf70f;" horiz-adv-x="451" 
d="M426 104q0 -39 -17 -60t-37.5 -30.5t-37.5 -11.5t-18 -2h-130v62h65h65l6.5 0.5t13.5 4.5t13 12.5t6 24.5v37q-18 -29 -46.5 -39.5t-55.5 -4.5t-46.5 27t-19.5 54v287q0 29 -9 39.5t-32 10.5h-44v-515h-77v573l12.5 0.5t30.5 0.5t39 0.5t39 0.5q22 0 43.5 -4t38 -15.5
t26.5 -32t10 -54.5v-271q0 -17 10.5 -28t27.5 -13q18 -2 32.5 10.5t14.5 30.5v373h77v-467v0z" />
    <glyph glyph-name="maihanakatleftthai" unicode="&#xf710;" 
d="M-193 623q-23 0 -36.5 5.5t-21.5 14t-10.5 19t-2.5 19.5v34h78q-1 -14 7.5 -24.5t21.5 -10.5h47v-57h-83z" />
    <glyph glyph-name="nikhahitleftthai" unicode="&#xf711;" 
d="M-123 666q0 -28 -17.5 -42t-38.5 -14t-38.5 14t-17.5 42t17.5 42t38.5 14t38.5 -14t17.5 -42zM-157 666q0 11 -7 16.5t-15 5.5t-15 -5.5t-7 -16.5t7 -16t15 -5t15 5t7 16z" />
    <glyph glyph-name="maitaikhuleftthai" unicode="&#xf712;" 
d="M-190 678q-12 1 -18.5 -1.5t-8.5 -6.5t-2 -8.5v-7.5v-22l44 29l43 -29v-42l-43 30l-44 -28h-42v87q0 17 12 27.5t28 10.5h90v-39h-59z" />
    <glyph glyph-name="maiekupperleftthai" unicode="&#xf713;" 
d="M-180 733v74h63v-74h-63z" />
    <glyph glyph-name="maithoupperleftthai" unicode="&#xf714;" 
d="M-179 733v37h-34v51h46q14 0 21.5 -6.5t10.5 -14.5q4 -9 3 -20h50v-47h-97z" />
    <glyph glyph-name="maitriupperleftthai" unicode="&#xf715;" 
d="M-176 733v21l-27 -13l-28 13v-21h-49q-1 22 6.5 35t17.5 20q11 8 25 10l28 -14l27 14q8 1 16 -3q7 -3 14 -9.5t12 -18.5h27v-34h-69z" />
    <glyph glyph-name="maichattawaupperleftthai" unicode="&#xf716;" 
d="M-122 762v-29h-54v29h-31v45h31v29h54v-29h31v-45h-31z" />
    <glyph glyph-name="thanthakhatupperleftthai" unicode="&#xf717;" 
d="M-92 761q-11 0 -17.5 -8.5t-6.5 -19.5h-63v27q0 8 2 16.5t8 15t17.5 11t29.5 4.5h51v-46h-21z" />
    <glyph glyph-name="saraulowthai" unicode="&#xf718;" 
d="M-96 -246v54h-43v50h114v-104h-71z" />
    <glyph glyph-name="sarauulowthai" unicode="&#xf719;" 
d="M-25 -203q0 -13 -8.5 -21t-22 -13t-29 -7t-29.5 -2q-15 0 -30 1t-28 5.5t-22 13t-10 23.5l-1 10l-36 1v50h104v-40q0 -8 7 -11t15 -3t14.5 3t6.5 11v40h69v-61v0z" />
    <glyph glyph-name="phinthulowthai" unicode="&#xf71a;" 
d="M-69 -229q-22 0 -33 14t-11 31t11 31t33 14t33.5 -14t11.5 -31t-11.5 -31t-33.5 -14z" />
    <glyph glyph-name="lochula.short" unicode="&#xf71d;" horiz-adv-x="403" 
d="M372 98q0 -36 -9 -58t-23.5 -34t-33.5 -15t-40 0q-23 4 -36.5 13.5t-20.5 20.5q-8 12 -11 27l-2.5 -8t-9.5 -18.5t-19 -20.5t-33 -14q-22 -4 -41.5 -0.5t-34.5 16.5t-24 35t-9 56v473h77v-473q0 -28 7.5 -37t24.5 -9q16 0 21 10t5 36v473h77v-473q0 -28 7.5 -37t21.5 -9
t21.5 7t7.5 39v345q1 17 -4 26.5t-12 14.5q-8 5 -18 6v52l6 0.5t12.5 4.5t11.5 13.5t4 28.5v30h77v-30q1 -28 -4.5 -42.5t-12.5 -21.5q-8 -8 -19 -9q12 -6 21 -16q8 -8 12.5 -22t2.5 -35v-345v0z" />
    <glyph glyph-name="rulakkhangyao" unicode="&#xf881;" horiz-adv-x="429" 
d="M326 -105v593q2 9 -2 16q-3 6 -10.5 11t-23.5 5h-35q9 -21 9 -51v-573h-77v569q0 29 -9.5 39.5t-32.5 10.5h-43v-453h43v-62h-120v573h100q89 0 178 3q38 1 58.5 -12t29.5 -30q11 -19 12 -44v-595h-77z" />
    <glyph glyph-name="lulakkhangyao" unicode="&#xf882;" horiz-adv-x="443" 
d="M342 -105v593q2 9 -2 16q-3 6 -10.5 11t-23.5 5h-35q9 -21 9 -51v-573h-76l-1 569q0 29 -9.5 39.5t-32.5 10.5h-42v-515h-110v60h33v513q69 0 138.5 0.5t138.5 2.5q38 1 58.5 -12t29.5 -30q11 -19 12 -44v-595h-77z" />
    <glyph glyph-name="yamakkanleftthai" 
d="M-119 704q-14 0 -24 -13.5t-11 -36.5q1 -2 1 -7.5t1 -13t4 -16t8 -15.5h-57q-9 14 -11 29.5t-2 16.5q-1 22 6 38t15.5 27t14.5 16.5t5 5.5q-2 0 -9 4.5t-14 14.5t-13 25t-6 36q0 1 1 14.5t11 25.5h57q-9 -12 -10 -27.5t-1 -18.5q-1 -23 9.5 -33t24.5 -10v-62z" />
    <glyph glyph-name="saraamleft" horiz-adv-x="152" 
d="M-120 666q0 -28 -17.5 -42t-39 -14t-39 14t-17.5 42t17.5 42t39 14t39 -14t17.5 -42zM50 0v490q1 10 -3 18q-4 7 -14.5 11t-32.5 2q-1 0 -0.5 8t0.5 19v27q48 8 73.5 -4.5t37.5 -29.5q14 -20 16 -49v-492h-77zM-155 666q0 11 -6.5 16.5t-15 5.5t-15 -5.5t-6.5 -16.5
t6.5 -16t15 -5t15 5t6.5 16z" />
    <glyph glyph-name="uni0E33.alt1" horiz-adv-x="152" 
d="M-120 666q0 -28 -17.5 -42t-39 -14t-39 14t-17.5 42t17.5 42t39 14t39 -14t17.5 -42zM50 0v490q1 10 -3 18q-4 7 -14.5 11t-32.5 2q-1 0 -0.5 8t0.5 19v27q48 8 73.5 -4.5t37.5 -29.5q14 -20 16 -49v-492h-77zM-155 666q0 11 -6.5 16.5t-15 5.5t-15 -5.5t-6.5 -16.5
t6.5 -16t15 -5t15 5t6.5 16z" />
    </font>
</defs>
</svg>
